<?xml version="1.0" standalone="yes"?>
<svg xmlns="http://www.w3.org/2000/svg" width="1080" height="1080">
<path style="fill:#010101; stroke:none;" d="M0 0L0 1080L1080 1080L1080 0L0 0z"/>
<path style="fill:#6b4b3d; stroke:none;" d="M474 571L523 612.87L615 692.13L661 731L670 715L663 725L675.258 704.83L676.847 689L682 663C679.714 664.32 677.903 665.748 680 668L664 681L667 680L667 681L662 683L665 687C657.305 688.031 653.238 688.893 646 686L647 683L644 682L644 676L647 673L644 673L643 668L647 663L645 663L648 658C643.226 658 645.473 640.086 646 636L644 637L644 636C644.972 631.804 642.914 628.975 640 626L640 625L654 608L653 608L640 622L641 616L640 616L640 618L639 618L638 612L636 608L633 609L632 580L635 579L634 576L639 573L644 566C647.842 565.801 648.284 563.567 648 560L651 557L656 558L655 556L661 556L661 558L675 550L682 552L682 551L682 550L680 550L685 548L686 544L691 547L692 539L691 542L692 542L693 538L695 537L698 544L699 544L699 541C701.819 541 701.634 539.579 701 537L703 537L702 534C704.542 535.525 706.767 539.942 703 539L702 550C705.421 549.316 704.049 551.512 702 551L706 560L703 560L704 580C711.271 575.802 721.405 569.506 720 560L722 560L723 557L722 554L724 555L724 554L723 552L723 551L725 552L725 551L724 549L724 548L726 549L726 548L725 544L726 544L726 546L727 546L726 542C730.85 541.341 730.955 532.084 732 528L731 528L729 533L728 533C732.505 518.763 735.998 506.321 736 491L735 491C734.944 497.687 733.41 501.851 728 506L729 509L725 511L730 483L728 483C728 494.14 726.71 502.471 721 512C714.493 507.658 714.307 505.951 716 499L715 499L711 504L709 500L709 499L712 494L710 495L710 494L712 489L709 489L711 484L709 485L709 484L715 464L715 461L713 462L715 456L714 450L725 444L725 443L715 446L718 441L717 433C721.863 429.42 731.987 404.128 738.147 421.975C738.722 423.642 738.843 425.262 739 427L740 427C739.941 424.566 739.881 422.282 738.914 419.998C730.755 400.714 717.019 422 707 425C706.268 429.07 703.14 432.008 701.941 436C698.338 448.003 693.811 466.658 696 479L695 479C692.148 463.637 692.397 446.606 692.015 431C691.889 425.877 694.079 415.565 690 412C694.306 397.432 690 378.174 690 363C680.494 367.433 671.441 378.571 664 386C648.81 401.166 633.269 415.909 618 430.996C587.065 461.564 555.828 492.263 524 521.911C507.7 537.094 486.83 552.787 474 571z"/>
<path style="fill:#7f5846; stroke:none;" d="M682 407L681 412L684 413L684 407L682 407M687 408L687 411L688 411L687 408M675 409L676 410L675 409z"/>
<path style="fill:#6b4b3d; stroke:none;" d="M683 409L684 410L683 409M727 410L727 411L733 411L727 410z"/>
<path style="fill:#7f5846; stroke:none;" d="M671 411L672 412L671 411M677 411L670 418L663 421L662 422L663 424L659 425L661 427L661 428C655.977 432.911 657.398 435.76 661 441L658 441L658 442L665 439L668 444L667 440L673 436L677 436L678 430L675 431L675 428L676 427L679 427L679 426L677 427L677 426L679 423L680 423L684 425L686 421L683 421L683 420L686 419L686 414L680 412L679 412L677 414L677 411M690 411L691 412L690 411z"/>
<path style="fill:#6b4b3d; stroke:none;" d="M679 413L678 416L679 416L679 413z"/>
<path style="fill:#7f5846; stroke:none;" d="M717 433L718 441L715 446L725 443L725 444L714 450L715 456L713 462L715 464L709 485L711 484L709 489L712 489L710 495L712 494L712 495L709 499L709 500L711 504L715 499L716 499C713.518 505.574 714.032 508.865 721 512C728.121 503.777 728 493.411 728 483L730 483L725 511L729 509L728 506C735.265 502.246 734.901 495.209 736.08 488C738.888 470.844 739.03 452.267 739.957 435C740.21 430.289 739.654 414.116 731.96 415.326C722.875 416.755 721.936 427.51 717 433z"/>
<path style="fill:#6b4b3d; stroke:none;" d="M672.333 416.667L672.667 417.333L672.333 416.667M674.667 416.333L675.333 416.667L674.667 416.333M679 417L680 418L679 417z"/>
<path style="fill:#7f5846; stroke:none;" d="M688.333 417.667L688.667 418.333L688.333 417.667M726 417L727 418L726 417M724 418L725 419L724 418z"/>
<path style="fill:#6b4b3d; stroke:none;" d="M681 420L681 423L681 424L684 423L681 420M663 422L664 423L663 422M665 424L668 423L665 424M674 422L675 423L674 422z"/>
<path style="fill:#010101; stroke:none;" d="M687 422L687 428L688 428L687 422z"/>
<path style="fill:#7f5846; stroke:none;" d="M740 422L741 423L740 422z"/>
<path style="fill:#6b4b3d; stroke:none;" d="M665 425L666 426L665 425M672 425L671 427L672 425M674 425L675 426L674 425z"/>
<path style="fill:#7f5846; stroke:none;" d="M682 426L681 429L682 426z"/>
<path style="fill:#6b4b3d; stroke:none;" d="M662 431L663 432L662 431M667 431L668 432L667 431M673 431L674 432L673 431z"/>
<path style="fill:#010101; stroke:none;" d="M688.333 432.667L688.667 433.333L688.333 432.667z"/>
<path style="fill:#6b4b3d; stroke:none;" d="M658 433L658 435L660 433L658 433M674 433L672 436C674.259 435.538 675.212 435.145 674 433M662 435L661 438L662 438L662 435z"/>
<path style="fill:#7f5846; stroke:none;" d="M655 436L656 437L655 436z"/>
<path style="fill:#010101; stroke:none;" d="M688.333 436.667L688.667 437.333L688.333 436.667z"/>
<path style="fill:#6b4b3d; stroke:none;" d="M663 437L663 439L665 437L663 437M668 437L670 439L668 437z"/>
<path style="fill:#7f5846; stroke:none;" d="M716.333 437.667L716.667 438.333L716.333 437.667z"/>
<path style="fill:#6b4b3d; stroke:none;" d="M666 439L667 440L666 439M738 441L738 445L739 445L738 441z"/>
<path style="fill:#7f5846; stroke:none;" d="M665 443L666 444L665 443M660 444L662 446L660 444M663 445L664 446L663 445z"/>
<path style="fill:#6b4b3d; stroke:none;" d="M727 446L730 459L731 459C730.987 454.198 731.438 448.797 727 446z"/>
<path style="fill:#7f5846; stroke:none;" d="M662 447L661 449L662 447M714 448L715 449L714 448z"/>
<path style="fill:#010101; stroke:none;" d="M689 450L689 453L690 453L689 450z"/>
<path style="fill:#7f5846; stroke:none;" d="M678 453L679 454L678 453z"/>
<path style="fill:#010101; stroke:none;" d="M689 454L690 455L689 454z"/>
<path style="fill:#7f5846; stroke:none;" d="M680 457L676 462C678.917 461.231 680.711 460.164 680 457z"/>
<path style="fill:#010101; stroke:none;" d="M690 458L690 461L691 461L690 458z"/>
<path style="fill:#6b4b3d; stroke:none;" d="M715 458L716 459L715 458M731.333 461.667L731.667 462.333L731.333 461.667z"/>
<path style="fill:#7f5846; stroke:none;" d="M674.333 462.667L674.667 463.333L674.333 462.667z"/>
<path style="fill:#010101; stroke:none;" d="M691 466L691 469L692 469L691 466z"/>
<path style="fill:#6b4b3d; stroke:none;" d="M729 466L730 470L731 470L729 466z"/>
<path style="fill:#7f5846; stroke:none;" d="M675 468L676 469L675 468z"/>
<path style="fill:#6b4b3d; stroke:none;" d="M737 469L738 470L737 469M730 471L731 472L730 471M730.333 475.667L730.667 476.333L730.333 475.667z"/>
<path style="fill:#7f5846; stroke:none;" d="M709 477L710 478L709 477z"/>
<path style="fill:#010101; stroke:none;" d="M696 481L696 485L697 485L696 481z"/>
<path style="fill:#6b4b3d; stroke:none;" d="M729 481L730 482L729 481z"/>
<path style="fill:#7f5846; stroke:none;" d="M707 483L708 484L707 483z"/>
<path style="fill:#010101; stroke:none;" d="M697 486L698 494L699 494L697 486z"/>
<path style="fill:#6b4b3d; stroke:none;" d="M713.333 487.667L713.667 488.333L713.333 487.667z"/>
<path style="fill:#7f5846; stroke:none;" d="M707 489L708 490L707 489z"/>
<path style="fill:#010101; stroke:none;" d="M699 495L699 498L700 498L699 495z"/>
<path style="fill:#7f5846; stroke:none;" d="M707 496L708 497L707 496z"/>
<path style="fill:#010101; stroke:none;" d="M700.333 499.667L700.667 500.333L700.333 499.667z"/>
<path style="fill:#7f5846; stroke:none;" d="M708 500L708 503L709 503L708 500z"/>
<path style="fill:#6b4b3d; stroke:none;" d="M722 504L723 505L722 504z"/>
<path style="fill:#7f5846; stroke:none;" d="M709 506L710 507L709 506M712 506L713 507L712 506z"/>
<path style="fill:#6b4b3d; stroke:none;" d="M719 506L720 507L719 506M721.333 507.667L721.667 508.333L721.333 507.667z"/>
<path style="fill:#7f5846; stroke:none;" d="M709 508L708 510L709 508z"/>
<path style="fill:#6b4b3d; stroke:none;" d="M719.333 508.667L719.667 509.333L719.333 508.667z"/>
<path style="fill:#7f5846; stroke:none;" d="M715 509L716 510L715 509M713.333 510.667L713.667 511.333L713.333 510.667z"/>
<path style="fill:#010101; stroke:none;" d="M533 546L534 546L538 537L539 537L529 555C535.198 554.085 539.772 552.861 540 546L543 548C543.846 544.37 546.699 544.43 550 545L554 544L560 540L574 539L572 542L580 540C582.606 534.787 601.446 534.216 601 536C606.728 533.573 611.869 533.172 617 537L610 539C617.151 541.114 625.573 540 633 540C650.754 540 667.096 542.15 677 524C662.221 524.264 653.76 515.655 640 512.67C632.52 511.047 623.663 512.074 616 512C596.294 511.81 578.983 514.387 560 520.677C554.259 522.58 546.105 523.419 541.585 527.815C537.511 531.776 534.297 540.54 533 546z"/>
<path style="fill:#7f5846; stroke:none;" d="M715 512L714 515L717 515L715 512M724.667 512.333L725.333 512.667L724.667 512.333z"/>
<path style="fill:#6b4b3d; stroke:none;" d="M631 513L631 514L642 515L631 513z"/>
<path style="fill:#7f5846; stroke:none;" d="M719.333 513.667L719.667 514.333L719.333 513.667M724 514L725 515L724 514z"/>
<path style="fill:#6b4b3d; stroke:none;" d="M621 515L621 516L624 516L621 515M643.667 515.333L644.333 515.667L643.667 515.333M601 516L602 517L601 516M617 516L618 517L617 516M645 517L645 518L648 518L645 517M651 518L652 519L651 518M609 524L610 525L609 524M592 525L593 526L592 525M601 527L601 528L607 526L601 527M614 525L615 526L614 525M626 525L627 526L626 525M608 531L608 532C615.035 531.999 619.272 531.229 625 527C619.479 524.85 613.102 528.907 608 531M599 528L598 530L599 528M608 529L609 530L608 529M583 530L584 531L583 530M592 530L589 532L589 533L592 530M596 530L594 533C596.251 532.527 597.118 532.14 596 530M603 531L603 532L607 531L603 531z"/>
<path style="fill:#010101; stroke:none;" d="M711 530L712 531L711 530z"/>
<path style="fill:#6b4b3d; stroke:none;" d="M578 534L582 532L578 534M621 531L622 532L621 531z"/>
<path style="fill:#010101; stroke:none;" d="M727 533L724 542L725 542L726 538L727 538L727 541L728 541L727 533z"/>
<path style="fill:#6b4b3d; stroke:none;" d="M572 536L575 534L572 536M576 534L577 535L576 534M588 534L589 535L588 534z"/>
<path style="fill:#7f5846; stroke:none;" d="M702 534L703 537L701 537L699 544L698 544L695 537L693 538L692 542L691 542L692 539C688.935 541.345 689.411 543.752 691 547L686 544L685 548C682.121 547.296 678.581 550.094 682 550L682 551L682 552L675 550L661 558L661 556L655 556L656 558L651 557L648 560C648.083 563.25 647.454 565.503 644 566L639 573L634 576L635 579L632 580C633.003 590.235 627.433 599.285 633 609L636 608L638 612L639 618L640 618L640 616L641 616L640 622L653 608L654 608L640 625L640 626L644 637L646 636L646 637C644.827 640.674 643.278 658.128 648 658L645 663L647 663L643 668L644 673L647 673L644 676L644 682L647 683L646 686C652.915 689.891 657.485 688.55 665 687L662 683L667 681L667 680L664 681L665 678C672.284 679.82 677.467 674.44 680 668L681 663L679 660L682 659L683 643L680 644L682 640L681 636C683.555 634.601 681.316 623.343 679 622L679 618L686 607L689 609L688 605L689 605L689 607L690 607C690.895 602.248 694.104 593.587 690 590L690 589C694.09 588.124 693.813 582.713 694 579L695 579L694 588C705.047 582.299 705.36 571.294 703 560L706 560L702 551C704.034 551.084 704.034 549.916 702 550L703 539C706.308 538.44 703.978 535.197 702 534z"/>
<path style="fill:#6b4b3d; stroke:none;" d="M618.333 535.667L618.667 536.333L618.333 535.667M539 536L540 537L539 536M564 539L571 537L564 539M576 536L577 537L576 536z"/>
<path style="fill:#010101; stroke:none;" d="M610 536L611 537L610 536M604 537L605 538L604 537z"/>
<path style="fill:#7f5846; stroke:none;" d="M699 537L700 538L699 537z"/>
<path style="fill:#6b4b3d; stroke:none;" d="M574 538L575 539L574 538M562 539L563 540L562 539M557.667 540.333L558.333 540.667L557.667 540.333z"/>
<path style="fill:#7f5846; stroke:none;" d="M687 540L686 542L687 540z"/>
<path style="fill:#6b4b3d; stroke:none;" d="M695 540L696 541L695 540M554 541L555 542L554 541z"/>
<path style="fill:#010101; stroke:none;" d="M552 543L553 544L552 543z"/>
<path style="fill:#7f5846; stroke:none;" d="M683 543L684 544L683 543z"/>
<path style="fill:#010101; stroke:none;" d="M723 543L721 550L722 550L723 543z"/>
<path style="fill:#6b4b3d; stroke:none;" d="M700.333 544.667L700.667 545.333L700.333 544.667z"/>
<path style="fill:#010101; stroke:none;" d="M546 545L547 546L546 545z"/>
<path style="fill:#6b4b3d; stroke:none;" d="M698 545L699 546L698 545z"/>
<path style="fill:#010101; stroke:none;" d="M581 546L582 547L581 546M571 547L554 555L558 556L561 556L562 556L562 553L563 553L564 559L564 562L561 560L563 563L559 557L557 557C558.491 573.427 574.116 571.033 586 571L586 572L580 572L580 573C584.317 572.908 589.966 572.883 591 568L600 560L599 551L596 548C590.271 550.593 576.529 549.945 571 547z"/>
<path style="fill:#6b4b3d; stroke:none;" d="M699 547L697 549L697 550L701 551L701 547L699 547z"/>
<path style="fill:#afaaa9; stroke:none;" d="M596 550L599 549L596 550z"/>
<path style="fill:#e9e4e2; stroke:none;" d="M598 549L598 550L640 556C634.404 549.654 627.375 552.216 620 551.536C612.724 550.864 605.281 547.769 598 549z"/>
<path style="fill:#6b4b3d; stroke:none;" d="M597 549L605 552L605 551L597 549z"/>
<path style="fill:#7f5846; stroke:none;" d="M678 549L679 550L678 549M599 550L600 551L599 550z"/>
<path style="fill:#afaaa9; stroke:none;" d="M600 550L600 551L608 552L600 550z"/>
<path style="fill:#6b4b3d; stroke:none;" d="M765 550L766 554L767 554L765 550z"/>
<path style="fill:#7f5846; stroke:none;" d="M605 551L611 555L611 551L605 551z"/>
<path style="fill:#afaaa9; stroke:none;" d="M611 551L612 552L611 551z"/>
<path style="fill:#e9e4e2; stroke:none;" d="M599 552L600 553L599 552z"/>
<path style="fill:#afaaa9; stroke:none;" d="M600 552L607 556L605 560L609 560L608 556L609 556L612 559L612 558L610 557L613 556L613 555L605 554L600 552M609 552L610 553L609 552z"/>
<path style="fill:#6b4b3d; stroke:none;" d="M611 552L612 553L611 552z"/>
<path style="fill:#7f5846; stroke:none;" d="M612 552L613 556L614 556L615 553L612 552z"/>
<path style="fill:#afaaa9; stroke:none;" d="M615 552L618 555L618 554L617 552L615 552z"/>
<path style="fill:#6b4b3d; stroke:none;" d="M562 553L562 556L561 556L555 556L557 563L558 563L557 557L559 557L563 563L561 560L564 562L564 559C567.384 558.386 563.515 554.459 562 553M598 553L601 555L600 559L601 559L598 553z"/>
<path style="fill:#e9e4e2; stroke:none;" d="M605.667 553.333L606.333 553.667L605.667 553.333z"/>
<path style="fill:#afaaa9; stroke:none;" d="M610.667 553.333L611.333 553.667L610.667 553.333M613 553L614 554L613 553z"/>
<path style="fill:#e9e4e2; stroke:none;" d="M614 553L615 554L614 553z"/>
<path style="fill:#7f5846; stroke:none;" d="M616 553L616 554L620 554L616 553z"/>
<path style="fill:#afaaa9; stroke:none;" d="M619 554L630 556L619 554z"/>
<path style="fill:#010101; stroke:none;" d="M720 553L721 554L720 553z"/>
<path style="fill:#afaaa9; stroke:none;" d="M552 554L553 555L552 554z"/>
<path style="fill:#7f5846; stroke:none;" d="M601 554L602 555L601 554z"/>
<path style="fill:#e9e4e2; stroke:none;" d="M607.667 554.333L608.333 554.667L607.667 554.333z"/>
<path style="fill:#6b4b3d; stroke:none;" d="M611 554L612 555L611 554M613 554L616 556L613 554z"/>
<path style="fill:#e9e4e2; stroke:none;" d="M618 554L619 555L618 554z"/>
<path style="fill:#7f5846; stroke:none;" d="M621 554L622 555L621 554M665 554L664 556L665 554z"/>
<path style="fill:#6b4b3d; stroke:none;" d="M674 554L673 558L674 558L674 554M701 554L702 555L701 554z"/>
<path style="fill:#7f5846; stroke:none;" d="M705 554L705 557L706 557L705 554z"/>
<path style="fill:#afaaa9; stroke:none;" d="M550 555L551 556L550 555z"/>
<path style="fill:#7f5846; stroke:none;" d="M554 555L551 556L561 567L554 555M599 555L600 556L599 555z"/>
<path style="fill:#010101; stroke:none;" d="M600.333 555.667L600.667 556.333L600.333 555.667z"/>
<path style="fill:#7f5846; stroke:none;" d="M602 555L602 558L603 558L602 555M604 555L605 556L604 555z"/>
<path style="fill:#e9e4e2; stroke:none;" d="M611 555L612 556L611 555z"/>
<path style="fill:#010101; stroke:none;" d="M616 555L616 556L619 556L616 555z"/>
<path style="fill:#6b4b3d; stroke:none;" d="M619 555L618 558L619 555z"/>
<path style="fill:#7f5846; stroke:none;" d="M620 555L621 556L620 555M623 555L623 556C626.82 557.477 631.274 558.652 634 555L623 555z"/>
<path style="fill:#e9e4e2; stroke:none;" d="M626 555L627 556L626 555z"/>
<path style="fill:#afaaa9; stroke:none;" d="M634.667 555.333L635.333 555.667L634.667 555.333z"/>
<path style="fill:#7f5846; stroke:none;" d="M549 556L548 558L549 556z"/>
<path style="fill:#6b4b3d; stroke:none;" d="M550 556L549 558L550 556z"/>
<path style="fill:#afaaa9; stroke:none;" d="M552 556L553 557L552 556M599 556L600 557L599 556z"/>
<path style="fill:#010101; stroke:none;" d="M602 556L603 557L602 556z"/>
<path style="fill:#7f5846; stroke:none;" d="M606 556L604 559L606 556z"/>
<path style="fill:#e9e4e2; stroke:none;" d="M608 556L609 557L608 556M610 557L612 558L612 559L608 558L609 560L601 557L601 562C594.924 562.991 593.441 569.82 587.982 572.121C569.006 580.118 563.552 565.463 550 557L549 560C544.381 559.829 527.867 566.336 527.867 572.089C527.867 577.451 536.812 582.134 541 583.94C555.421 590.157 582.256 586.901 597 583L597 582C582.893 583.783 569.131 584.347 555 582.424C549.207 581.635 543.959 581.769 540 577L571 580L571 581L569 581L569 582C586.562 582 605.988 579.457 622 571.676C628.233 568.647 633.018 563.441 639 560L639 558L628 557L628 559L623 558L623 559L625 559L610 557z"/>
<path style="fill:#afaaa9; stroke:none;" d="M614 556L615 557L614 556z"/>
<path style="fill:#7f5846; stroke:none;" d="M615.667 556.333L616.333 556.667L615.667 556.333z"/>
<path style="fill:#afaaa9; stroke:none;" d="M617 556L616 558L618 558L617 556z"/>
<path style="fill:#7f5846; stroke:none;" d="M618 556L619 557L618 556z"/>
<path style="fill:#010101; stroke:none;" d="M620 556L620 557L623 557L620 556z"/>
<path style="fill:#6b4b3d; stroke:none;" d="M623.333 556.667L623.667 557.333L623.333 556.667M627 556L628 557L627 556M634 556L634 557L637 557L634 556z"/>
<path style="fill:#7f5846; stroke:none;" d="M637 556L638 557L637 556z"/>
<path style="fill:#afaaa9; stroke:none;" d="M638 556L638 558L640 558L640 556L638 556M551 557L552 558L551 557z"/>
<path style="fill:#7f5846; stroke:none;" d="M599 557L600 558L599 557z"/>
<path style="fill:#010101; stroke:none;" d="M603 557L604 558L603 557z"/>
<path style="fill:#6b4b3d; stroke:none;" d="M604 557L605 558L604 557z"/>
<path style="fill:#e9e4e2; stroke:none;" d="M606 557L607 558L606 557z"/>
<path style="fill:#7f5846; stroke:none;" d="M608 557L609 558L608 557M619 557L619 558L623 558L623 557L619 557z"/>
<path style="fill:#afaaa9; stroke:none;" d="M620.667 557.333L621.333 557.667L620.667 557.333z"/>
<path style="fill:#010101; stroke:none;" d="M624 557L625 558L624 557z"/>
<path style="fill:#6b4b3d; stroke:none;" d="M625.667 557.333L626.333 557.667L625.667 557.333z"/>
<path style="fill:#afaaa9; stroke:none;" d="M629.667 557.333L630.333 557.667L629.667 557.333M632.667 557.333L633.333 557.667L632.667 557.333z"/>
<path style="fill:#6b4b3d; stroke:none;" d="M667 557L668 558L667 557z"/>
<path style="fill:#afaaa9; stroke:none;" d="M546 558L546 559L549 560L546 558M601 558L602 559L601 558M603 558L604 559L603 558z"/>
<path style="fill:#6b4b3d; stroke:none;" d="M605 558L606 559L605 558z"/>
<path style="fill:#afaaa9; stroke:none;" d="M619 558L620 559L619 558M622.333 558.667L622.667 559.333L622.333 558.667M627 558L628 559L627 558z"/>
<path style="fill:#010101; stroke:none;" d="M544 559L545 560L544 559z"/>
<path style="fill:#afaaa9; stroke:none;" d="M545 559L546 560L545 559z"/>
<path style="fill:#6b4b3d; stroke:none;" d="M598 559L599 560L598 559z"/>
<path style="fill:#afaaa9; stroke:none;" d="M600 559L600 562L601 562L600 559M602 559L603 560L602 559z"/>
<path style="fill:#7f5846; stroke:none;" d="M623 559L624 560L623 559z"/>
<path style="fill:#afaaa9; stroke:none;" d="M624 559L625 560L624 559z"/>
<path style="fill:#010101; stroke:none;" d="M542 560L539 562L539 563L542 560z"/>
<path style="fill:#afaaa9; stroke:none;" d="M542 562L545 560L542 562z"/>
<path style="fill:#7f5846; stroke:none;" d="M599 560L600 561L599 560z"/>
<path style="fill:#6b4b3d; stroke:none;" d="M597 561L597 563L599 561L597 561z"/>
<path style="fill:#afaaa9; stroke:none;" d="M541 562L542 563L541 562z"/>
<path style="fill:#010101; stroke:none;" d="M634 562L635 563L634 562M719 562L720 563L719 562z"/>
<path style="fill:#afaaa9; stroke:none;" d="M540 563L541 564L540 563z"/>
<path style="fill:#010101; stroke:none;" d="M633 563L634 564L633 563z"/>
<path style="fill:#afaaa9; stroke:none;" d="M539 564L540 565L539 564M596 564L597 565L596 564z"/>
<path style="fill:#010101; stroke:none;" d="M632 564C621.546 572.42 610.23 579.269 597 582L597 583C606.047 582.587 632.247 575.627 632 564z"/>
<path style="fill:#7f5846; stroke:none;" d="M704 565L705 566L704 565z"/>
<path style="fill:#6b4b3d; stroke:none;" d="M561 567L562 568L561 567z"/>
<path style="fill:#afaaa9; stroke:none;" d="M562 568L563 569L562 568z"/>
<path style="fill:#6b4b3d; stroke:none;" d="M591 568L592 569L591 568z"/>
<path style="fill:#afaaa9; stroke:none;" d="M592.333 568.667L592.667 569.333L592.333 568.667z"/>
<path style="fill:#7f5846; stroke:none;" d="M564 569L565 570L564 569M640 569L641 570L640 569M565 570L565 571L569 572L569 571L565 570z"/>
<path style="fill:#6b4b3d; stroke:none;" d="M567 570L568 571L567 570z"/>
<path style="fill:#7f5846; stroke:none;" d="M591 570L592 571L591 570z"/>
<path style="fill:#6b4b3d; stroke:none;" d="M565 571L568 573L568 572L565 571z"/>
<path style="fill:#e9e4e2; stroke:none;" d="M566 571L567 572L566 571z"/>
<path style="fill:#6b4b3d; stroke:none;" d="M569 571C569.997 575.653 576.433 574.304 580 573L580 572L571 571L572 573L569 571z"/>
<path style="fill:#7f5846; stroke:none;" d="M577 571L577 572L581 572L577 571z"/>
<path style="fill:#e9e4e2; stroke:none;" d="M581 571L582 572L581 571z"/>
<path style="fill:#afaaa9; stroke:none;" d="M582 571L583 572L582 571z"/>
<path style="fill:#7f5846; stroke:none;" d="M583 571L584 572L583 571z"/>
<path style="fill:#6b4b3d; stroke:none;" d="M584.667 571.333L585.333 571.667L584.667 571.333z"/>
<path style="fill:#7f5846; stroke:none;" d="M589 571L590 572L589 571z"/>
<path style="fill:#afaaa9; stroke:none;" d="M590 571L591 572L590 571M565 572L566 573L565 572M568 572L567 574L568 572z"/>
<path style="fill:#7f5846; stroke:none;" d="M570.667 572.333L571.333 572.667L570.667 572.333M576 572L577 573L576 572z"/>
<path style="fill:#6b4b3d; stroke:none;" d="M586 572L587 573L586 572z"/>
<path style="fill:#afaaa9; stroke:none;" d="M587 572L588 573L587 572z"/>
<path style="fill:#7f5846; stroke:none;" d="M568 573L569 574L568 573M579.667 573.333L580.333 573.667L579.667 573.333z"/>
<path style="fill:#afaaa9; stroke:none;" d="M581.667 573.333L582.333 573.667L581.667 573.333M617 573L618 574L617 573M615.333 574.667L615.667 575.333L615.333 574.667z"/>
<path style="fill:#7f5846; stroke:none;" d="M616 574L617 575L616 574z"/>
<path style="fill:#afaaa9; stroke:none;" d="M612.333 575.667L612.667 576.333L612.333 575.667z"/>
<path style="fill:#6b4b3d; stroke:none;" d="M613 575L614 576L613 575z"/>
<path style="fill:#7f5846; stroke:none;" d="M614 575L615 576L614 575z"/>
<path style="fill:#6b4b3d; stroke:none;" d="M638 575L639 576L638 575z"/>
<path style="fill:#afaaa9; stroke:none;" d="M608 576L610 578L608 576z"/>
<path style="fill:#7f5846; stroke:none;" d="M609 576L610 577L609 576z"/>
<path style="fill:#6b4b3d; stroke:none;" d="M610.667 576.333L611.333 576.667L610.667 576.333z"/>
<path style="fill:#e9e4e2; stroke:none;" d="M613 576L614 577L613 576z"/>
<path style="fill:#afaaa9; stroke:none;" d="M540 577C541.806 580.272 543.382 580.81 547 580L540 577M604 577L606 579L606 577L604 577z"/>
<path style="fill:#6b4b3d; stroke:none;" d="M606.667 577.333L607.333 577.667L606.667 577.333z"/>
<path style="fill:#7f5846; stroke:none;" d="M608 577L609 578L608 577z"/>
<path style="fill:#e9e4e2; stroke:none;" d="M610.667 577.333L611.333 577.667L610.667 577.333z"/>
<path style="fill:#afaaa9; stroke:none;" d="M591 582L585 581L585 582L602 581L602 580C600.04 579.347 599.446 579 602 579C599.157 577.913 591.531 578.747 591 582z"/>
<path style="fill:#7f5846; stroke:none;" d="M602 578L602 579L605 579L602 578z"/>
<path style="fill:#e9e4e2; stroke:none;" d="M600 579L600 580L610 579L600 579z"/>
<path style="fill:#6b4b3d; stroke:none;" d="M695 578L696 579L695 578z"/>
<path style="fill:#7f5846; stroke:none;" d="M706 578L707 579L706 578z"/>
<path style="fill:#afaaa9; stroke:none;" d="M571 579L571 580L576 580L571 579M607 579L608 580L607 579z"/>
<path style="fill:#6b4b3d; stroke:none;" d="M694 579L693 588L694 588L694 579z"/>
<path style="fill:#7f5846; stroke:none;" d="M546 580L546 581L549 581L546 580z"/>
<path style="fill:#afaaa9; stroke:none;" d="M547 581L547 582L551 581L547 581M555 582L555 583L581 584L581 583L569 582L569 581L571 581L555 582z"/>
<path style="fill:#e9e4e2; stroke:none;" d="M596 580L596 581L600 581L596 580z"/>
<path style="fill:#7f5846; stroke:none;" d="M602.667 580.333L603.333 580.667L602.667 580.333M550 581L550 582L553 582L550 581z"/>
<path style="fill:#6b4b3d; stroke:none;" d="M553 581L554 582L553 581z"/>
<path style="fill:#7f5846; stroke:none;" d="M554.667 581.333L555.333 581.667L554.667 581.333z"/>
<path style="fill:#e9e4e2; stroke:none;" d="M564.667 581.333L565.333 581.667L564.667 581.333z"/>
<path style="fill:#7f5846; stroke:none;" d="M588 581L588 582L591 582L588 581M594 581L594 582L600 582L594 581M513 582L511 584L510 588L513 588L512 592L516 603L517 603L513 582M579.667 582.333L580.333 582.667L579.667 582.333z"/>
<path style="fill:#6b4b3d; stroke:none;" d="M581 582L581 583L585 583L581 582z"/>
<path style="fill:#7f5846; stroke:none;" d="M585 582L585 583L588 583L585 582z"/>
<path style="fill:#6b4b3d; stroke:none;" d="M701 582L702 583L701 582z"/>
<path style="fill:#afaaa9; stroke:none;" d="M512.333 583.667L512.667 584.333L512.333 583.667z"/>
<path style="fill:#7f5846; stroke:none;" d="M575.667 583.333L576.333 583.667L575.667 583.333z"/>
<path style="fill:#010101; stroke:none;" d="M594 583L594 584L597 584L594 583z"/>
<path style="fill:#6b4b3d; stroke:none;" d="M511 585L512 586L511 585z"/>
<path style="fill:#7f5846; stroke:none;" d="M631 587L632 588L631 587z"/>
<path style="fill:#afaaa9; stroke:none;" d="M512 588L512 591L513 591L512 588z"/>
<path style="fill:#6b4b3d; stroke:none;" d="M690 589L690 590L693 591L690 589z"/>
<path style="fill:#010101; stroke:none;" d="M591 590L592 591L591 590M564 598L564 599L590 592L564 598z"/>
<path style="fill:#afaaa9; stroke:none;" d="M513.333 592.667L513.667 593.333L513.333 592.667z"/>
<path style="fill:#6b4b3d; stroke:none;" d="M667 595L666 597L668 597L667 595M664 598L662 601L664 598z"/>
<path style="fill:#010101; stroke:none;" d="M562 599L563 600L562 599z"/>
<path style="fill:#6b4b3d; stroke:none;" d="M659 602L659 604L661 602L659 602M657 604L655 607L657 604M690 604L691 605L690 604M688 605L689 609L686 607L679 618L679 622L681 636L682 640L680 644L683 645L684 645C684.487 634.34 694.435 614.474 688 605z"/>
<path style="fill:#7f5846; stroke:none;" d="M567 606L568 607L567 606M553 609L554 610L553 609M560 609L559 611L560 609M552 613L548 612L549 615L558 615L555 612L555 611L558 612C555.844 610.367 552.503 609.82 552 613M633 610L635 612L633 610M686 610L687 611L686 610M540 611L541 612L540 611M561 611L559 613L559 614L561 611M542 615L543 616L542 615M685 616L686 617L685 616M684 621L683 623L684 621M639 622L641 624L639 622M682 624L684 628L684 624L682 624M611 626L614 628L614 627L611 626z"/>
<path style="fill:#6b4b3d; stroke:none;" d="M643 628L644 629L643 628z"/>
<path style="fill:#7f5846; stroke:none;" d="M643 632L643 635L644 635L643 632M643 642L644 643L643 642z"/>
<path style="fill:#6b4b3d; stroke:none;" d="M677 642L678 643L677 642M676 644L676 647L677 647L676 644M678 644L679 647L680 647L680 644L678 644M684 645L685 646L684 645z"/>
<path style="fill:#7f5846; stroke:none;" d="M643.333 646.667L643.667 647.333L643.333 646.667z"/>
<path style="fill:#6b4b3d; stroke:none;" d="M682 646L683 647L682 646M680 648L679 650L680 648M682 648L681 651L682 648M683 652L684 653L683 652M680 654L679 657L680 657L681 657L680 654M681 655L682 656L681 655M681 657L682 658L681 657M679 662L682 659L679 662M683 659L684 660L683 659M687 660L690 662L690 661L687 660z"/>
<path style="fill:#afaaa9; stroke:none;" d="M688 660L689 661L688 660z"/>
<path style="fill:#7f5846; stroke:none;" d="M689 660L690 661L689 660z"/>
<path style="fill:#6b4b3d; stroke:none;" d="M648 661L649 662L648 661z"/>
<path style="fill:#7f5846; stroke:none;" d="M644 664L645 665L644 664M680 664L681 665L680 664M642 665L643 666L642 665z"/>
<path style="fill:#6b4b3d; stroke:none;" d="M710 665L712 667L710 665z"/>
<path style="fill:#7f5846; stroke:none;" d="M711 665L712 667L713 667L714 665L711 665z"/>
<path style="fill:#6b4b3d; stroke:none;" d="M714.667 665.333L715.333 665.667L714.667 665.333z"/>
<path style="fill:#afaaa9; stroke:none;" d="M713.667 666.333L714.333 666.667L713.667 666.333z"/>
<path style="fill:#7f5846; stroke:none;" d="M715 666L714 668L715 666z"/>
<path style="fill:#6b4b3d; stroke:none;" d="M713 667L714 668L713 667M715 667L716 668L715 667M646 668L645 670L646 668z"/>
<path style="fill:#7f5846; stroke:none;" d="M638 670L639 671L638 670z"/>
<path style="fill:#6b4b3d; stroke:none;" d="M676 671L677 672L676 671z"/>
<path style="fill:#7f5846; stroke:none;" d="M645 673L646 674L645 673z"/>
<path style="fill:#6b4b3d; stroke:none;" d="M674 673L675 674L674 673z"/>
<path style="fill:#7f5846; stroke:none;" d="M640 675L640 676L641 680C643.261 677.953 642.36 676.514 640 675z"/>
<path style="fill:#6b4b3d; stroke:none;" d="M648 675L649 679L650 679L648 675M667 675L666 677L667 675M671 676L672 677L671 676z"/>
<path style="fill:#010101; stroke:none;" d="M608 679L610 682L608 679z"/>
<path style="fill:#7f5846; stroke:none;" d="M670.667 679.333L671.333 679.667L670.667 679.333M668 680L669 681L668 680M666.667 682.333L667.333 682.667L666.667 682.333M645 683L646 684L645 683M666 684L665 686L667 686L666 684M641 685L641 688L642 688L641 685M637 688L637 693C639.034 691.232 639.034 689.768 637 688M658 689L660 691L658 689M645 691L646 692L645 691M640.333 692.667L640.667 693.333L640.333 692.667M642 692L644 695L642 692z"/>
</svg>
