<?xml version="1.0" standalone="yes"?>
<svg xmlns="http://www.w3.org/2000/svg" width="1080" height="1080">
<path style="fill:#040302; stroke:none;" d="M0 0L0 1080L1080 1080L1080 0L0 0z"/>
<path style="fill:#63705f; stroke:none;" d="M756 17L757 22L753 27L756 24L757 24L757 27L761 26L766 22L765 19L761 17L756 17z"/>
<path style="fill:#040302; stroke:none;" d="M758 21L759 22L758 21z"/>
<path style="fill:#63705f; stroke:none;" d="M769 23L770 24L769 23M768 25L768 28L773 25L768 25M760 29L759 31L761 31L760 29M761 32L762 33L761 32M751 36L754 38L753 35L751 36M755 37L752 43L755 46L755 53L755 54L755 58L743 59L743 58L748 58L745 54L745 53L751 50L749 47L744 49L744 57L741 57L742 61L745 60C739.961 72.9852 726.013 66.4524 715.718 66.4745C709.638 66.4876 705.742 69.1741 700 66L700 68L694 66L691 72L690 72C688.194 68.7507 686.617 68.4013 683 69L682 65L670 69L670 70L673 70L672 74C666.829 72.4948 649.97 76.9202 649 83L639 84C635.443 91.9999 629.014 91.0281 622 94L622 95L625 95L625 96L619 96L619 95L620 91L618 91L611 98L612 101L608 103L608 104L611 105L601 109L597 111L611.486 114.282L619.015 119.923L639.826 114.653L655 122C657.461 116.485 664.296 104.001 671 112L673 112L674 109C676.047 110.747 676.474 110.645 677 108L680 110C680.879 104.926 684.364 101.851 689 100L690 103C695.872 101.484 709.249 96.6296 710 90L733 89L733 96L741 96L740 101L736 100L737 104C731.941 103.064 729.306 104.653 730 110L725 118C721.863 117.506 721 117.964 720 121L719 121C717.472 116.923 715.181 115.785 711 115C709.25 119.161 706.212 121.917 702 119L694 116L691 117L690 122L691 125L685 123L684 117L680 119L682 123L676 128L677 131L674 130L673 134L656 133C653.488 138.916 651.093 148.488 658.105 152.381C662.646 154.902 669.25 152.797 671.357 159.019C673.61 165.672 667.698 173.234 668.225 180C668.719 186.33 673.946 189.922 677 195L678 195C678.42 187.351 684.131 186.226 688.023 180.548C690.393 177.091 693.142 164.897 693 161C698.998 160.268 706.081 158.206 705 151L707 146L708 146L709 150L711 150L714 142L715 147L738 143L739 146L740 146C744.966 139.651 765.792 137.914 760 127L763 126L763 122L769 123L768 112C767.753 108.992 768.396 104.509 765 104L764 96L766 102L767 102L769 101C768.098 97.493 764.686 92.6738 770 92L770 91L761 94L760 89L764 87L761 86L760 89L759 89L760 81L761 81L763 83L766 81L763 78L766 67L766.441 53L760 41L763 38L760 36L755 37z"/>
<path style="fill:#040302; stroke:none;" d="M759 44L761 46L759 44z"/>
<path style="fill:#63705f; stroke:none;" d="M586 53L594 47C589.753 46.307 587.342 49.2567 586 53z"/>
<path style="fill:#a44f11; stroke:none;" d="M593 47L594 48L593 47M585 55L591 51C582.967 62.9421 577.354 79.7456 561 83L561 82C567.539 80.6813 573.19 75.297 577 70C573.192 71.2832 570.014 74.4603 566 74.9907C553.984 76.5786 547.041 72.7369 536 80L546 68L542 68C536.452 75.5165 525.091 82.8396 516 85L516 86L519 87L519 88C499.778 82.611 486.696 110.084 494 126L492 126C500.974 153.533 521.632 168.788 540.961 189C545.398 193.641 554.744 209.005 561.891 208.808C567.842 208.643 566 195.734 566 192C575.269 197.681 568.565 211.801 574.529 218.606C579.095 223.817 589.119 223.003 595.286 225.259C606.414 229.33 614.949 238.694 626 243L624 238C629.532 234.98 632.496 228.634 638.039 225.367C645.36 221.051 660.78 222.474 669 224C673.783 215.801 678.62 215.492 687 218C684.616 213.487 680.386 209.586 678.469 204.985C676.697 200.732 678.486 196.314 675.853 192.17C672.701 187.211 665.944 182.589 669 176C668.017 173.05 667.513 172.378 670 173C669.461 169.768 668.102 168.275 671 169C670.456 165.737 668.783 163.196 672 164C670.451 150.939 662.083 157.839 655.728 149.735C651.991 144.969 654.862 138.441 654 133L656 134C655.131 126.267 654.748 119.453 645 119L645 115C632.934 113.121 622.952 118.034 613.911 125.5C610.432 128.373 605.921 130.113 606 135L604 131L603 131L601 136L603 136L601 158L600 158L600 139L596 140L602 128C594.62 128.727 587.897 127.333 582 123L582 127L581 127C581.011 112.813 593.084 94.4124 588 81L588.75 72L594 49L593 48L585 55z"/>
<path style="fill:#63705f; stroke:none;" d="M565 50L568 52L567 49L565 50z"/>
<path style="fill:#040302; stroke:none;" d="M592 49L591 51L592 49z"/>
<path style="fill:#63705f; stroke:none;" d="M593 51L593 54L594 54L593 51z"/>
<path style="fill:#040302; stroke:none;" d="M755 54L755 57L759 58L755 54z"/>
<path style="fill:#63705f; stroke:none;" d="M543 69L551 63L552 64L551 73C558.26 75.2959 567.742 77.6126 573 71C566.98 68.0621 562.684 61.6353 562 55C554.986 55.9446 546.14 62.7042 543 69z"/>
<path style="fill:#040302; stroke:none;" d="M761 58L762 59L761 58M759 59L760 60L759 59M749 60L750 61L749 60z"/>
<path style="fill:#a44f11; stroke:none;" d="M419 61C419 79.7008 430.625 95.0914 436.897 111.804C439.786 119.5 438.507 132.637 439 141C443.845 140.352 454.654 135.048 454.093 128.996C453.556 123.19 446.787 116.509 444.84 110.715C443.157 105.712 446.975 101.093 443 97L443 99L431 79C433.157 73.8795 432.647 70.1965 431 65L430 65L431 69L428 68L429 66L429 65L428 65L427 67L427 64L426 63L423 63L423 62L428 62L419 61z"/>
<path style="fill:#ac8056; stroke:none;" d="M428 61L423 62L423 63L426 63L427 64C426.689 65.7089 426.914 67.4988 428 65L429 65L431 69L428 61z"/>
<path style="fill:#040302; stroke:none;" d="M755 61L759 64L755 61z"/>
<path style="fill:#ac8056; stroke:none;" d="M420.667 62.3333L421.333 62.6667L420.667 62.3333z"/>
<path style="fill:#a44f11; stroke:none;" d="M429.333 62.6667L429.667 63.3333L429.333 62.6667z"/>
<path style="fill:#040302; stroke:none;" d="M748 62L746 67L748 69L749 69L753 64L748 62M550 63L536 80L552 74L552 64L550 63z"/>
<path style="fill:#ac8056; stroke:none;" d="M425 64L426 65L425 64z"/>
<path style="fill:#63705f; stroke:none;" d="M748 64L747 66L748 64z"/>
<path style="fill:#ac8056; stroke:none;" d="M422 65L423 66L422 65z"/>
<path style="fill:#040302; stroke:none;" d="M756 65L753 69L756 65M762 65L763 66L762 65z"/>
<path style="fill:#ac8056; stroke:none;" d="M421 67L422 68L421 67z"/>
<path style="fill:#a44f11; stroke:none;" d="M579 67L580 68L579 67z"/>
<path style="fill:#040302; stroke:none;" d="M697 67L698 74L699 74L697 67z"/>
<path style="fill:#a44f11; stroke:none;" d="M578 68L579 69L578 68z"/>
<path style="fill:#040302; stroke:none;" d="M694 68L695 69L694 68M700 68L703 75L704 75L705 73L700 68M763 68L764 69L763 68z"/>
<path style="fill:#ac8056; stroke:none;" d="M428 69L432 73L428 69z"/>
<path style="fill:#a44f11; stroke:none;" d="M577 69L578 70L577 69z"/>
<path style="fill:#040302; stroke:none;" d="M673 69L674 70L673 69M679 70L680 71L679 70M677 72L676 74L677 72z"/>
<path style="fill:#63705f; stroke:none;" d="M272 92C270.064 98.5168 264.69 102.114 261.708 108C256.299 118.68 256.992 127.546 257 139L258 139C258 127.693 257.862 118.672 264.789 109C267.922 104.624 278.247 97.4669 276.289 91.1481C274.792 86.321 267.509 88.5565 264 89C264.426 86.2449 265.067 84.3428 267.148 82.3271C281.342 68.5771 284.779 89.6635 295.961 92.0293C303.254 93.5724 302.709 78.4166 312.927 82.6042C319.002 85.0941 314.402 93.2338 310.867 95.892C307.284 98.5864 302.817 99.1079 299.004 101.278C291.112 105.769 270.27 130.747 283 139C278.995 126.137 287.858 111.771 299.004 104.742C304.499 101.276 310.733 101.398 315.786 96.5324C321.027 91.4865 323.412 81.7549 314.995 78.8542C311.284 77.575 306.56 77.6478 303.039 79.456C300.685 80.6652 298.108 84.3917 295.17 83.0941C292.375 81.86 290.571 78.2741 287.957 76.5633C280.444 71.6472 271.283 74.7353 265.058 80.3287C255.113 89.2646 262.974 92.7124 272 92z"/>
<path style="fill:#040302; stroke:none;" d="M587.333 74.6667L587.667 75.3333L587.333 74.6667M660 76L661 77L660 76M761.333 76.6667L761.667 77.3333L761.333 76.6667z"/>
<path style="fill:#ac8056; stroke:none;" d="M274 77L274 78L278 78L274 77z"/>
<path style="fill:#040302; stroke:none;" d="M541 77L542 78L541 77z"/>
<path style="fill:#ac8056; stroke:none;" d="M272 78L273 79L272 78z"/>
<path style="fill:#b3c3bb; stroke:none;" d="M265 88C268.871 87.5134 276.984 85.7751 277.147 92.0439C277.363 100.312 262.557 110.467 259.548 119C255.771 129.709 259.879 141.794 257.867 153C257.025 157.685 252.956 160.541 251.537 165C249.491 171.428 250.004 180.253 250 187C254.589 185.477 254.674 180.249 256 176C261.968 183.079 257.242 188.913 259 197C278.445 190.259 283.97 168.491 307 168L307 156L308 156L310 172L311 172L311 166L312 166L313.139 203L313 227L323 224L353.61 206.034L373 182C362.923 192.974 355.002 206.874 355 222L354 222L354 215L353 215C349.135 228.55 351.371 247.676 356.861 261C358.697 265.455 360.722 272.113 366.04 273.442C371.312 274.76 375.355 269.371 379 266.517C387.549 259.823 409.593 247.573 408 235C424.598 229.934 413.628 215.123 411.311 203C410.473 198.615 411.414 190.983 408 188L410 174L404 177C409.863 171.648 417.418 167.726 418 159C425.373 158.747 436.568 150.778 441 145L375 145L377 143L377 142L355 145L355 146L357 146L357 147L324.17 145.397L305 133L305 135L303 135L303 132C295.804 130.461 288.059 139.927 282.303 137.632C276.692 135.394 280.241 124.533 282.214 121C285.918 114.368 291.883 106.3 298.039 101.8C301.569 99.2204 306.224 98.6893 309.61 96.0054C311.852 94.2278 315.753 88.5667 313.867 85.6034C308.431 77.062 300.365 92.7975 295.996 92.5424C285.915 91.9538 280.292 67.9528 267.318 82.2091C265.698 83.9891 265.352 85.7273 265 88z"/>
<path style="fill:#ac8056; stroke:none;" d="M279.667 78.3333L280.333 78.6667L279.667 78.3333z"/>
<path style="fill:#63705f; stroke:none;" d="M589 78L590 79L589 78z"/>
<path style="fill:#ac8056; stroke:none;" d="M270 79L271 80L270 79M281.667 79.3333L282.333 79.6667L281.667 79.3333z"/>
<path style="fill:#040302; stroke:none;" d="M428.667 79.3333L429.333 79.6667L428.667 79.3333z"/>
<path style="fill:#ac8056; stroke:none;" d="M283 80L288 87L289 87L283 80z"/>
<path style="fill:#040302; stroke:none;" d="M535 80L519 88L519 89C523.858 88.7775 535.162 86.2095 535 80M550 81L550 82L555 81L550 81M587 80L588 81L587 80z"/>
<path style="fill:#ac8056; stroke:none;" d="M267 81L268 82L267 81z"/>
<path style="fill:#040302; stroke:none;" d="M560 81L561 82L560 81z"/>
<path style="fill:#ac8056; stroke:none;" d="M266 82L267 83L266 82M303 85C314.373 82.2938 313.543 87.1665 311 96C322.943 87.9604 309.823 75.3433 303 85z"/>
<path style="fill:#040302; stroke:none;" d="M546 84L549 83L546 84z"/>
<path style="fill:#ac8056; stroke:none;" d="M265 83L266 84L265 83z"/>
<path style="fill:#040302; stroke:none;" d="M651 84L651 85L654 84L652 87L655 84L651 84z"/>
<path style="fill:#ac8056; stroke:none;" d="M264 84L264 89L268 89L268 88L265 88L264 84z"/>
<path style="fill:#040302; stroke:none;" d="M543.667 84.3333L544.333 84.6667L543.667 84.3333z"/>
<path style="fill:#ac8056; stroke:none;" d="M302 85L302 88L303 88L302 85z"/>
<path style="fill:#040302; stroke:none;" d="M541 85L542 86L541 85z"/>
<path style="fill:#63705f; stroke:none;" d="M625.333 85.6667L625.667 86.3333L625.333 85.6667z"/>
<path style="fill:#040302; stroke:none;" d="M539 86L540 87L539 86z"/>
<path style="fill:#63705f; stroke:none;" d="M623 86L624 87L623 86z"/>
<path style="fill:#040302; stroke:none;" d="M733 86L734 87L733 86z"/>
<path style="fill:#ac8056; stroke:none;" d="M268 87L268 88L275 88L268 87M289 87L296 93L296 92L289 87z"/>
<path style="fill:#040302; stroke:none;" d="M724.667 87.3333L725.333 87.6667L724.667 87.3333z"/>
<path style="fill:#ac8056; stroke:none;" d="M275 88L277 90L277 88L275 88z"/>
<path style="fill:#040302; stroke:none;" d="M649 88L648 90L649 88M734 88L735 89L734 88z"/>
<path style="fill:#ac8056; stroke:none;" d="M301 89L300 91L302 91L301 89z"/>
<path style="fill:#040302; stroke:none;" d="M710 90C710.188 95.2753 694.724 101.508 690 103L689 100C683.67 100.845 680.445 104.678 680 110L677 108L674 109L673 112L671 112C665.044 102.106 656.78 117.529 654 122C656.402 125.762 654.381 128.863 655.948 132.518C658.778 139.114 668.13 133.881 673 134L677 131L676 128L682 123L680 119L684 117L685 123L691 125L690 122L694 116C696.025 119.299 698.282 119.551 702 119C705.67 123.135 709.853 119.101 711 115L719 121L720 121L725 118L730 110C730.082 105.066 732.199 103.64 737 104L736 100L740 101L741 96L733 96L733 89L710 90z"/>
<path style="fill:#ac8056; stroke:none;" d="M277 90L277 94L278 94L277 90z"/>
<path style="fill:#63705f; stroke:none;" d="M621 90L622 91L621 90M716.667 91.3333L717.333 91.6667L716.667 91.3333z"/>
<path style="fill:#ac8056; stroke:none;" d="M298 92L299 93L298 92z"/>
<path style="fill:#040302; stroke:none;" d="M737 92L738 93L737 92z"/>
<path style="fill:#ac8056; stroke:none;" d="M296.667 93.3333L297.333 93.6667L296.667 93.3333z"/>
<path style="fill:#040302; stroke:none;" d="M756.667 93.3333L757.333 93.6667L756.667 93.3333z"/>
<path style="fill:#ac8056; stroke:none;" d="M276.333 94.6667L276.667 95.3333L276.333 94.6667z"/>
<path style="fill:#040302; stroke:none;" d="M635 94L636 95L635 94M706 94L707 95L706 94M740 94L741 95L740 94M762 94L763 95L762 94M631.667 95.3333L632.333 95.6667L631.667 95.3333z"/>
<path style="fill:#ac8056; stroke:none;" d="M275 96L276 97L275 96M309.667 96.3333L310.333 96.6667L309.667 96.3333z"/>
<path style="fill:#63705f; stroke:none;" d="M455 129L456 129C465.097 120.951 472.212 110.318 473 98L466 98L466 97L468 97C459.966 93.6601 443.911 97.8209 444.15 108.13C444.313 115.171 450.471 124.023 455 129z"/>
<path style="fill:#040302; stroke:none;" d="M618 96L612 99L613 106L618 104L617 101L614 102L618 96M636 96L637 97L636 96z"/>
<path style="fill:#ac8056; stroke:none;" d="M274.333 97.6667L274.667 98.3333L274.333 97.6667M307.667 97.3333L308.333 97.6667L307.667 97.3333z"/>
<path style="fill:#63705f; stroke:none;" d="M598 97L597 108L598 108L601 100L600 100L600 102L599 102L598 97z"/>
<path style="fill:#ac8056; stroke:none;" d="M304 98L304 99L307 99L304 98z"/>
<path style="fill:#040302; stroke:none;" d="M463 98L463 99L466 99L463 98z"/>
<path style="fill:#ac8056; stroke:none;" d="M273 99L274 100L273 99M301 99L301 100L304 100L301 99M272 100L273 101L272 100M299 100L300 101L299 100z"/>
<path style="fill:#040302; stroke:none;" d="M443 100L444 101L443 100z"/>
<path style="fill:#ac8056; stroke:none;" d="M271 101L272 102L271 101M298 101L299 102L298 101M296 102L297 103L296 102z"/>
<path style="fill:#040302; stroke:none;" d="M444 102L445 103L444 102z"/>
<path style="fill:#63705f; stroke:none;" d="M686.333 102.667L686.667 103.333L686.333 102.667z"/>
<path style="fill:#ac8056; stroke:none;" d="M295 103L296 104L295 103M268 104L269 105L268 104M294 104L295 105L294 104z"/>
<path style="fill:#040302; stroke:none;" d="M445 104L446 105L445 104z"/>
<path style="fill:#ac8056; stroke:none;" d="M267 105L268 106L267 105z"/>
<path style="fill:#040302; stroke:none;" d="M615 105L613 107L613 108L615 105M675 105L675 108L676 108L675 105z"/>
<path style="fill:#ac8056; stroke:none;" d="M266 106L267 107L266 106z"/>
<path style="fill:#63705f; stroke:none;" d="M430 106C423.961 115.747 412.288 113.292 403 116.927C389.344 122.271 373.915 134.28 363 144L380 142L380 143L376 143L376 144L398 144.001L437 144L437 142L433 142L433 141L439 141C438.775 131.137 441.461 109.014 430 106z"/>
<path style="fill:#040302; stroke:none;" d="M765 106L766 107L765 106z"/>
<path style="fill:#ac8056; stroke:none;" d="M265 107L266 108L265 107M292 107L293 108L292 107z"/>
<path style="fill:#040302; stroke:none;" d="M607 107L608 108L607 107z"/>
<path style="fill:#ac8056; stroke:none;" d="M291 108L292 109L291 108M264 109L265 110L264 109M290 109L291 110L290 109M263 110L264 111L263 110M289 110L290 111L289 110z"/>
<path style="fill:#040302; stroke:none;" d="M763 110L764 111L763 110z"/>
<path style="fill:#ac8056; stroke:none;" d="M262 112L263 113L262 112z"/>
<path style="fill:#63705f; stroke:none;" d="M721 112L722 113L721 112z"/>
<path style="fill:#ac8056; stroke:none;" d="M287 113L288 114L287 113M261 114L262 115L261 114M286 114L287 115L286 114z"/>
<path style="fill:#040302; stroke:none;" d="M646.333 115.667L646.667 116.333L646.333 115.667M727 115L728 116L727 115z"/>
<path style="fill:#ac8056; stroke:none;" d="M260 116L261 117L260 116z"/>
<path style="fill:#040302; stroke:none;" d="M535 128L536 128L542 123C540.081 126.61 533.181 135.436 537.607 139.338C544.571 145.478 546.991 127.281 547 124L551 125C551.003 130.011 550.663 135.921 555.214 139.258C558.884 141.949 568.227 141.361 567.534 135.059C566.887 129.178 561.254 135.305 558.595 133.967C555.511 132.415 554.805 127.978 554 125C558.615 124.037 561.797 119.078 555.811 116.607C548.1 113.425 536.366 120.486 535 128z"/>
<path style="fill:#ac8056; stroke:none;" d="M284 117L285 118L284 117M259 118L260 119L259 118M283 118L284 119L283 118z"/>
<path style="fill:#040302; stroke:none;" d="M645 118L646 119L645 118z"/>
<path style="fill:#63705f; stroke:none;" d="M686 118L688 120L686 118z"/>
<path style="fill:#040302; stroke:none;" d="M644 120L642 125L643 125L644 120M710 120L711 121L710 120z"/>
<path style="fill:#ac8056; stroke:none;" d="M258.333 121.667L258.667 122.333L258.333 121.667M281 121L282 122L281 121z"/>
<path style="fill:#040302; stroke:none;" d="M493 121L496 125L493 121M653 123L654 124L653 123z"/>
<path style="fill:#63705f; stroke:none;" d="M655.333 123.667L655.667 124.333L655.333 123.667z"/>
<path style="fill:#040302; stroke:none;" d="M682 127L686 124L682 127z"/>
<path style="fill:#63705f; stroke:none;" d="M656 125L657 126L656 125z"/>
<path style="fill:#ac8056; stroke:none;" d="M257 126L258 127L257 126z"/>
<path style="fill:#040302; stroke:none;" d="M641 126L642 127L641 126M615 127L616 128L615 127z"/>
<path style="fill:#63705f; stroke:none;" d="M453 128L454 129L453 128z"/>
<path style="fill:#040302; stroke:none;" d="M640 128L641 129L640 128z"/>
<path style="fill:#ac8056; stroke:none;" d="M279 129L279 134L280 134L279 129M297.667 131.333L298.333 131.667L297.667 131.333M302 133L302 134L305 135L305 132L302 133z"/>
<path style="fill:#040302; stroke:none;" d="M607 132L606 134L607 132M654.333 133.667L654.667 134.333L654.333 133.667z"/>
<path style="fill:#ac8056; stroke:none;" d="M258 134L258 148L259 148L258 134z"/>
<path style="fill:#040302; stroke:none;" d="M673.333 134.667L673.667 135.333L673.333 134.667M603 135L604 136L603 135M670 135L671 136L670 135z"/>
<path style="fill:#ac8056; stroke:none;" d="M521 136L525 153L538 158L540 153L539 150L547 145L546 145L543 147L534 138L521 136z"/>
<path style="fill:#040302; stroke:none;" d="M653 136L654 137L653 136z"/>
<path style="fill:#ac8056; stroke:none;" d="M286 137L287 138L286 137M283 138L284 139L283 138z"/>
<path style="fill:#63705f; stroke:none;" d="M316 138L317 139L316 138z"/>
<path style="fill:#040302; stroke:none;" d="M675 138L676 139L675 138M745 140L748 138L745 140z"/>
<path style="fill:#ac8056; stroke:none;" d="M317 139L319 141L317 139z"/>
<path style="fill:#63705f; stroke:none;" d="M318 139L319 140L318 139z"/>
<path style="fill:#ac8056; stroke:none;" d="M379 140L380 141L379 140z"/>
<path style="fill:#040302; stroke:none;" d="M588 147L596 140L588 147z"/>
<path style="fill:#ac8056; stroke:none;" d="M319 141L320 142L319 141M377 141L380 143L377 141M380 143L380 144L386 142L380 143M388 141L388 142L394 143L394 142L388 141M370 142L371 143L370 142z"/>
<path style="fill:#b3c3bb; stroke:none;" d="M394 142L395 143L394 142z"/>
<path style="fill:#ac8056; stroke:none;" d="M395 142L395 143L398 143L395 142M375.333 143.667L375.667 144.333L375.333 143.667M384 143L384 145L389 145L384 143z"/>
<path style="fill:#63705f; stroke:none;" d="M442 143L438 148L438 149L447 143L442 143z"/>
<path style="fill:#ac8056; stroke:none;" d="M322 144L323 145L322 144M369 144L370 145L369 144M377 144L378 145L377 144M402 144L402 145L406 145L402 144M430 144L431 145L430 144M432 144L432 145L439 146L432 144z"/>
<path style="fill:#63705f; stroke:none;" d="M438.667 144.333L439.333 144.667L438.667 144.333z"/>
<path style="fill:#ac8056; stroke:none;" d="M440 144L442 146L442 144L440 144M311 145L312 146L311 145M358 145L358 146L362 146L358 145z"/>
<path style="fill:#63705f; stroke:none;" d="M362 145L363 146L362 145z"/>
<path style="fill:#ac8056; stroke:none;" d="M363.667 145.333L364.333 145.667L363.667 145.333M406 145L406 146L425 146L406 145z"/>
<path style="fill:#040302; stroke:none;" d="M616 145L617 146L616 145M310.667 146.333L311.333 146.667L310.667 146.333z"/>
<path style="fill:#ac8056; stroke:none;" d="M353 146L353 147L357 147L353 146M440 146L441 147L440 146M317.667 147.333L318.333 147.667L317.667 147.333M439 147L440 148L439 147z"/>
<path style="fill:#63705f; stroke:none;" d="M257 148L258 149L257 148z"/>
<path style="fill:#040302; stroke:none;" d="M310 148L315 153L310 148z"/>
<path style="fill:#ac8056; stroke:none;" d="M311 148L312 149L311 148z"/>
<path style="fill:#040302; stroke:none;" d="M614 148C610.692 151.749 610.877 154.584 613 159L614 159L614 148z"/>
<path style="fill:#ac8056; stroke:none;" d="M436 149L435 151L436 149z"/>
<path style="fill:#63705f; stroke:none;" d="M437 149L438 150L437 149z"/>
<path style="fill:#ac8056; stroke:none;" d="M432 150L433 151L432 150z"/>
<path style="fill:#63705f; stroke:none;" d="M436 150L437 151L436 150z"/>
<path style="fill:#ac8056; stroke:none;" d="M541.333 150.667L541.667 151.333L541.333 150.667M547 150L548 151L547 150z"/>
<path style="fill:#63705f; stroke:none;" d="M257 151C255.12 154.78 251.719 157.316 249.652 161.004C245.693 168.067 241.872 194.7 255 193C253.985 206.308 230.941 195.545 223 194L223 195C233.954 199.25 249.052 206.762 261 206.577C266.123 206.498 276.014 196.594 280.124 203.244C283.522 208.74 269.109 222.683 264.999 225.471C260.193 228.733 254.189 226.103 249 228.688C232.943 236.689 218.9 251.68 200 240L199 240C198.105 252.135 189.257 251.908 180 253.209C163.066 255.589 150.867 255.109 135 247L135 246L143 242L142 236C159.153 232.527 137.637 222.922 142 216C141.087 214.398 139.915 212.733 139.314 210.975C134.663 197.384 153.247 202.771 158.83 201.657C161.778 201.069 164.437 198.482 167 197L167 196C158.416 198.673 149.029 193.547 141.019 196.742C126.791 202.417 139.552 222.946 146 229L129 228C130.155 234.972 128.76 242.879 133.649 248.786C141.287 258.015 162.324 257.843 173 256.424C179.362 255.579 186.917 257.691 192.985 255.812C197.331 254.467 199.193 249.189 203.579 248.256C209.584 246.979 215.63 249.709 222 247.64C232.055 244.375 240.706 237.943 251 235C248.762 246.566 235.89 249.663 230 259C236.496 260.354 242.862 256.612 249 254.771C264.22 250.205 277.638 245.808 292 238.756C298.26 235.682 307.801 234.429 310 227L311 227L311 230L318 227L318 226L312 228L312 177L311 177L311 180L310 180L310 166L309 166L308.535 186.24L293 199C290.51 190.722 280.826 192.137 274 193L280 183L280 182L259 198L258 178L254 180L251 189C248.655 182.518 248.587 171.549 251.148 165C253.05 160.137 259.087 156.588 257 151M312 151L313 152L312 151M434.667 151.333L435.333 151.667L434.667 151.333z"/>
<path style="fill:#a44f11; stroke:none;" d="M536 151L536 155L537 155L538 151L536 151z"/>
<path style="fill:#63705f; stroke:none;" d="M313 152L314 153L313 152z"/>
<path style="fill:#ac8056; stroke:none;" d="M432 152L431 154L432 152z"/>
<path style="fill:#63705f; stroke:none;" d="M433 152L434 153L433 152M314 153L317 156L314 153z"/>
<path style="fill:#ac8056; stroke:none;" d="M426 157L430 153L426 157z"/>
<path style="fill:#63705f; stroke:none;" d="M432 153L433 154L432 153M430 154L431 155L430 154M429 155L430 156L429 155z"/>
<path style="fill:#ac8056; stroke:none;" d="M257 156L258 157L257 156z"/>
<path style="fill:#63705f; stroke:none;" d="M307 156L308 157L307 156z"/>
<path style="fill:#ac8056; stroke:none;" d="M311 156L311 165L312 165L311 156z"/>
<path style="fill:#63705f; stroke:none;" d="M317 156L318 157L317 156z"/>
<path style="fill:#ac8056; stroke:none;" d="M404 156L404 157L408 157L404 156z"/>
<path style="fill:#63705f; stroke:none;" d="M399 160L399 161C403.233 161.806 410.273 160.554 413 157L399 160z"/>
<path style="fill:#ac8056; stroke:none;" d="M409 156L409 157L415 159C414.271 155.597 412.194 156.013 409 156M424 156L422 159L424 156z"/>
<path style="fill:#63705f; stroke:none;" d="M425 156L416 164L427 157L425 156M427 156L428 157L427 156z"/>
<path style="fill:#ac8056; stroke:none;" d="M256 157L257 158L256 157M307 157L308 158L307 157z"/>
<path style="fill:#63705f; stroke:none;" d="M318 157L319 158L318 157z"/>
<path style="fill:#ac8056; stroke:none;" d="M391 160L391 161C395.958 160.986 399.576 160.88 403 157L391 160M416 157L417 158L416 157M255 158L256 159L255 158z"/>
<path style="fill:#63705f; stroke:none;" d="M307 158L308 162L309 162L307 158M319 158L320 159L319 158z"/>
<path style="fill:#040302; stroke:none;" d="M599 158C598.645 164.477 595.674 168.497 589 169C592.028 177.58 601.149 168.512 602 163L601 163L601 165L600 165L599 158z"/>
<path style="fill:#ac8056; stroke:none;" d="M254 159L255 160L254 159z"/>
<path style="fill:#63705f; stroke:none;" d="M320 159L321 160L320 159z"/>
<path style="fill:#ac8056; stroke:none;" d="M406 159L407 160L406 159M418 159L420 161L420 159L418 159z"/>
<path style="fill:#040302; stroke:none;" d="M646 159L647 160L646 159M671 159L671 162L672 162L671 159z"/>
<path style="fill:#ac8056; stroke:none;" d="M253 160L254 161L253 160z"/>
<path style="fill:#63705f; stroke:none;" d="M321 160L322 161L321 160z"/>
<path style="fill:#ac8056; stroke:none;" d="M384 160L384 161L388 161L384 160z"/>
<path style="fill:#63705f; stroke:none;" d="M388 160L397 162L397 161L388 160z"/>
<path style="fill:#ac8056; stroke:none;" d="M389 160L390 161L389 160z"/>
<path style="fill:#040302; stroke:none;" d="M400 160L401 161L400 160z"/>
<path style="fill:#ac8056; stroke:none;" d="M408 160L409 161L408 160z"/>
<path style="fill:#040302; stroke:none;" d="M612 160L612 163L613 163L612 160M614 160L615 161L614 160z"/>
<path style="fill:#ac8056; stroke:none;" d="M252 161L253 162L252 161z"/>
<path style="fill:#040302; stroke:none;" d="M307 161L307 172C294.071 172.304 276.867 179.347 274 193C281.318 192.423 289.139 191.275 293 199C305.721 193.173 317.211 174.477 307 161M373 161L373 162L388 162L373 161M397 161L397 162L400 162L397 161z"/>
<path style="fill:#ac8056; stroke:none;" d="M403 161L404 162L403 161z"/>
<path style="fill:#040302; stroke:none;" d="M647 161L649 163L647 161z"/>
<path style="fill:#ac8056; stroke:none;" d="M309 162L309 166L310 166L309 162M407 162L407 165L408 165L407 162z"/>
<path style="fill:#63705f; stroke:none;" d="M205 163L205 164C218.245 164 220.991 168.026 229.246 178C231.11 180.252 236.447 185.164 234.172 188.471C228.928 196.093 216.757 177.633 213 190L238 192C237.974 182.954 229.991 167.287 220.985 163.742C216.349 161.918 209.909 163 205 163z"/>
<path style="fill:#ac8056; stroke:none;" d="M251.333 163.667L251.667 164.333L251.333 163.667z"/>
<path style="fill:#63705f; stroke:none;" d="M401 163L402 164L401 163z"/>
<path style="fill:#040302; stroke:none;" d="M615 163L616 164L615 163M670 163L670 167L671 167L670 163z"/>
<path style="fill:#63705f; stroke:none;" d="M189 167L189 168L203 165C198.354 163.069 193.306 164.839 189 167z"/>
<path style="fill:#ac8056; stroke:none;" d="M200 165L200 166L206 165L200 165z"/>
<path style="fill:#b3c3bb; stroke:none;" d="M144 202C144.074 205.404 141.745 210.466 146 211L150 215L145 220L150.478 232.039L138 249L157 252L157 250L167 252L167 253L163 254L163 255C175.721 256.573 196.309 254.91 199 240L201 239C220.107 250.034 234.348 235.982 250 227.089C254.731 224.402 260.363 226.413 264.91 223.972C268.723 221.926 282.084 208.406 278.878 203.607C275.469 198.504 265.436 207.835 261.424 207.888C257.96 207.934 254.314 205.206 251 204.289C239.794 201.19 228.534 198.638 218.171 192.954C216.113 191.825 211.819 188.224 215.296 186.067C220.479 182.852 229.667 194.504 233.928 188.397C236.856 184.201 229.431 177.573 227.001 175C224.286 172.125 221.926 167.28 218.61 165.179C212.703 161.435 199.344 165.215 192.961 166.709C170.44 171.981 173.026 208.526 144 202z"/>
<path style="fill:#ac8056; stroke:none;" d="M218 164L219 165L218 164z"/>
<path style="fill:#63705f; stroke:none;" d="M307 164L307 168L308 168L307 164z"/>
<path style="fill:#040302; stroke:none;" d="M399 164L398 166L399 164z"/>
<path style="fill:#ac8056; stroke:none;" d="M415 164L416 165L415 164M569 169L570 186L582 187L583 195L580 195C581.858 200.393 585.423 203.111 591 204C591 201.803 594.699 198.752 596 201L600 199L601 201L601 202L599 202L599 203L602 204L603 201L604 201L612 200L611 194C615.252 191.492 615.504 189.125 613 185L612 185L610 187L605 180L604 183C598.05 181.577 587.047 182.696 589 174C585.918 171.381 584.915 169.976 586 166L569 169M197 166L198 167L197 166M220 166L221 167L220 166M250 166L250 170L251 170L250 166M311 166L310 180L311 180L311 166z"/>
<path style="fill:#040302; stroke:none;" d="M396 166L378 178L378 179C383.323 176.703 394.468 171.911 396 166z"/>
<path style="fill:#ac8056; stroke:none;" d="M221.333 167.667L221.667 168.333L221.333 167.667M300.667 168.333L301.333 168.667L300.667 168.333z"/>
<path style="fill:#63705f; stroke:none;" d="M282 180L307 172L307 168C298.002 168.815 285.998 171.124 282 180z"/>
<path style="fill:#ac8056; stroke:none;" d="M305 168L306 169L305 168M414 168L415 169L414 168z"/>
<path style="fill:#040302; stroke:none;" d="M616 168L617 169L616 168M669 168L669 171L670 171L669 168z"/>
<path style="fill:#63705f; stroke:none;" d="M186 169L187 170L186 169z"/>
<path style="fill:#ac8056; stroke:none;" d="M222.333 169.667L222.667 170.333L222.333 169.667M297.667 169.333L298.333 169.667L297.667 169.333z"/>
<path style="fill:#63705f; stroke:none;" d="M413 169L414 170L413 169z"/>
<path style="fill:#a44f11; stroke:none;" d="M571.667 169.333L572.333 169.667L571.667 169.333z"/>
<path style="fill:#63705f; stroke:none;" d="M185 170L186 171L185 170z"/>
<path style="fill:#ac8056; stroke:none;" d="M294.667 170.333L295.333 170.667L294.667 170.333M407 170L408 171L407 170M412 170L413 171L412 170M223 171L224 172L223 171M250 171L250 178L251 178L250 171M290 171L290 172L293 172L290 171M410 171L409 173L411 173L410 171z"/>
<path style="fill:#63705f; stroke:none;" d="M411 171L412 172L411 171M183 172L184 173L183 172z"/>
<path style="fill:#ac8056; stroke:none;" d="M224 172L225 173L224 172M288 172L289 173L288 172z"/>
<path style="fill:#63705f; stroke:none;" d="M311 172L312 173L311 172z"/>
<path style="fill:#ac8056; stroke:none;" d="M600 174L603 172L600 174M648 176L647 176L645 174L648 183L649 180L650 180L650 184C653.835 183.563 655.602 182.657 657 179L650 179L650 178L657 178L654 172C650.59 172.263 649.099 172.679 648 176z"/>
<path style="fill:#040302; stroke:none;" d="M668 172L668 175L669 175L668 172z"/>
<path style="fill:#ac8056; stroke:none;" d="M225 173L226 174L225 173M286 173L287 174L286 173M407 173L409 175L407 173z"/>
<path style="fill:#63705f; stroke:none;" d="M408.667 173.333L409.333 173.667L408.667 173.333M645 173L645 174L647 176L648 176L645 173z"/>
<path style="fill:#ac8056; stroke:none;" d="M226 174L227 175L226 174M284 174L285 175L284 174z"/>
<path style="fill:#63705f; stroke:none;" d="M404 177L408 175L404 177z"/>
<path style="fill:#a44f11; stroke:none;" d="M581 174L581 175L584 176L581 174z"/>
<path style="fill:#ac8056; stroke:none;" d="M642 174L643 177L642 174z"/>
<path style="fill:#63705f; stroke:none;" d="M643 174L648 181L643 174M181 175L182 176L181 175z"/>
<path style="fill:#ac8056; stroke:none;" d="M227 175L228 176L227 175z"/>
<path style="fill:#63705f; stroke:none;" d="M180 176L181 177L180 176z"/>
<path style="fill:#ac8056; stroke:none;" d="M256.333 176.667L256.667 177.333L256.333 176.667M322.333 176.667L322.667 177.333L322.333 176.667M405 176L406 177L405 176z"/>
<path style="fill:#040302; stroke:none;" d="M592 176L595 180L596 176L592 176M597 176L598 177L597 176M620 176L621 177L620 176M667.333 176.667L667.667 177.333L667.333 176.667z"/>
<path style="fill:#63705f; stroke:none;" d="M649 177L648 180L649 180L649 177M650 178L650 179L657 179L656 182L659 182C657.079 177.759 654.438 176.891 650 178z"/>
<path style="fill:#ac8056; stroke:none;" d="M255 178L254 180L256 180L255 178M258 178L259 183L260 183L258 178M282 178L283 179L282 178z"/>
<path style="fill:#040302; stroke:none;" d="M598 178L597 180L598 178z"/>
<path style="fill:#63705f; stroke:none;" d="M630 181L634 180L634 179L630 181z"/>
<path style="fill:#ac8056; stroke:none;" d="M634 178L629 181L628 186L638 184L632 189L632 190C641.455 191.095 638.034 182.556 634 178M659 178L658 181L661 179L659 178M178 179L179 180L178 179z"/>
<path style="fill:#040302; stroke:none;" d="M376 179L375 181L376 179z"/>
<path style="fill:#ac8056; stroke:none;" d="M177 180L178 181L177 180M249 180L249 186L250 186L249 180M281 180L282 181L281 180M407 180L407 185L408 185L407 180z"/>
<path style="fill:#040302; stroke:none;" d="M629 180L630 181L629 180z"/>
<path style="fill:#63705f; stroke:none;" d="M649 180L651 185L649 180z"/>
<path style="fill:#ac8056; stroke:none;" d="M661 180L662 181L661 180z"/>
<path style="fill:#63705f; stroke:none;" d="M176 181L177 182L176 181z"/>
<path style="fill:#ac8056; stroke:none;" d="M232 181L233 182L232 181M254 181L255 182L254 181M279.667 181.333L280.333 181.667L279.667 181.333z"/>
<path style="fill:#040302; stroke:none;" d="M373 181L374 182L373 181z"/>
<path style="fill:#63705f; stroke:none;" d="M634 181L635 182L634 181z"/>
<path style="fill:#ac8056; stroke:none;" d="M658 183L661 183L660 181L658 183z"/>
<path style="fill:#63705f; stroke:none;" d="M175 182L174 185L175 182z"/>
<path style="fill:#ac8056; stroke:none;" d="M277 182L278 183L277 182z"/>
<path style="fill:#040302; stroke:none;" d="M624 182L625 183L624 182z"/>
<path style="fill:#ac8056; stroke:none;" d="M627.333 182.667L627.667 183.333L627.333 182.667z"/>
<path style="fill:#b3c3bb; stroke:none;" d="M628 182L630 185L628 182z"/>
<path style="fill:#ac8056; stroke:none;" d="M276 183L277 184L276 183z"/>
<path style="fill:#040302; stroke:none;" d="M625 183L626 184L625 183z"/>
<path style="fill:#ac8056; stroke:none;" d="M234 184L235 185L234 184M259 184L259 187L260 187L259 184M312 184L313 185L312 184z"/>
<path style="fill:#040302; stroke:none;" d="M626 184L627 185L626 184z"/>
<path style="fill:#63705f; stroke:none;" d="M627.333 184.667L627.667 185.333L627.333 184.667M628 186C628.94 189.574 630.098 192.068 634 192L632 189L638 184L628 186z"/>
<path style="fill:#a44f11; stroke:none;" d="M651 184L652 185L651 184z"/>
<path style="fill:#63705f; stroke:none;" d="M652 184L653 185L652 184M173 185L170 192L171 192L173 185z"/>
<path style="fill:#ac8056; stroke:none;" d="M214 185L215 186L214 185M219 185L220 186L219 185M274 185L275 186L274 185z"/>
<path style="fill:#63705f; stroke:none;" d="M639 185L635 192L640 191L639 185z"/>
<path style="fill:#ac8056; stroke:none;" d="M650.667 185.333L651.333 185.667L650.667 185.333M213 186L214 187L213 186M221 186L222 187L221 186M235 186L235 189L236 189L235 186M253 186L250 188C252.049 188.242 253.868 188.316 253 186M273 186L274 187L273 186M212.333 187.667L212.667 188.333L212.333 187.667M223 187L224 188L223 187M272.333 187.667L272.667 188.333L272.333 187.667M408 187L409 188L408 187z"/>
<path style="fill:#a44f11; stroke:none;" d="M609 187L610 188L609 187z"/>
<path style="fill:#ac8056; stroke:none;" d="M225 188L226 189L225 188M640.333 188.667L640.667 189.333L640.333 188.667M234 189L235 190L234 189M258.333 189.667L258.667 190.333L258.333 189.667M271 189L272 190L271 189M312 189L312 193L313 193L312 189z"/>
<path style="fill:#040302; stroke:none;" d="M567 189L579 201C578.485 194.227 573.092 190.941 567 189z"/>
<path style="fill:#b3c3bb; stroke:none;" d="M628 189L630 192L628 189z"/>
<path style="fill:#ac8056; stroke:none;" d="M214 190L215 191L214 190M229 190L229 191L232 191L229 190M270 190L271 191L270 190M322 190L322 193L323 193L322 190M629 190L630 191L629 190z"/>
<path style="fill:#63705f; stroke:none;" d="M216 191L221 194L221 193L216 191z"/>
<path style="fill:#ac8056; stroke:none;" d="M269 191L270 192L269 191M630 191L629 193L631 193L630 191z"/>
<path style="fill:#63705f; stroke:none;" d="M169 192L170 193L169 192z"/>
<path style="fill:#ac8056; stroke:none;" d="M268 192L269 193L268 192M662 192L659 198L659 199C662.075 197.306 663.285 195.421 662 192z"/>
<path style="fill:#63705f; stroke:none;" d="M168 193L167 195L169 195L168 193z"/>
<path style="fill:#ac8056; stroke:none;" d="M266.667 193.333L267.333 193.667L266.667 193.333z"/>
<path style="fill:#040302; stroke:none;" d="M310 193L310 222L311 222L310 193z"/>
<path style="fill:#ac8056; stroke:none;" d="M222 194L223 195L222 194M265 194L266 195L265 194M322 194L322 203L323 203L322 194M665 194L665 197L667 196L667 195L665 194M224 195L225 196L224 195M258.333 195.667L258.667 196.333L258.333 195.667M263 195L264 196L263 195M226 196L227 197L226 196M259 198L262 196L259 198M165 197L166 198L165 197M229 197L230 198L229 197M164 198L165 199L164 198M231 198L232 199L231 198z"/>
<path style="fill:#040302; stroke:none;" d="M615 203C621.426 206.092 628.622 206.009 632 199C626.073 197.715 620.058 199.802 615 203z"/>
<path style="fill:#ac8056; stroke:none;" d="M162 199L163 200L162 199M142 216C139.417 219.143 143.149 223.251 146 225L145 220C148.351 219.272 149.412 218.403 150 215L146 211C141.908 210.462 144.403 205.303 144 202L155 202C144.09 197.381 133.796 205.235 142 216M235 200L236 201L235 200M257 206L257 207C262.064 208.902 285.093 197.15 276.866 209.975C275.767 211.689 274.842 213.15 274 215C278.155 212.76 286.326 201.937 276.956 200.643C269.86 199.664 264.562 207.011 257 206z"/>
<path style="fill:#63705f; stroke:none;" d="M677 200L677 203L678 203L677 200z"/>
<path style="fill:#ac8056; stroke:none;" d="M236 201L236 202L242 202L236 201M313.333 201.667L313.667 202.333L313.333 201.667M155 202L155 203L160 203L155 202M243.667 202.333L244.333 202.667L243.667 202.333M247 203L247 204L251 204L247 203z"/>
<path style="fill:#a44f11; stroke:none;" d="M567 203L564 213C567.547 210.18 569.397 207.244 567 203z"/>
<path style="fill:#040302; stroke:none;" d="M612 203C611.982 209.712 611.788 221.608 603 222L614 231L614.697 212.693L624 210L613 210L614 203L612 203z"/>
<path style="fill:#ac8056; stroke:none;" d="M146 204L146 207L147 207L146 204M252 204L253 205L252 204z"/>
<path style="fill:#63705f; stroke:none;" d="M678 204L683 210L678 204z"/>
<path style="fill:#ac8056; stroke:none;" d="M254 205L254 206L257 206L254 205M312.333 208.667L312.667 209.333L312.333 208.667M322.333 209.667L322.667 210.333L322.333 209.667M312 213L312 219L313 219L312 213M354 214L354 222L355 222L354 214M273 215L262.985 224.397L246 230C254.063 227.318 274.083 228.187 273 215z"/>
<path style="fill:#63705f; stroke:none;" d="M670 224C657.902 221.718 641.039 220.664 631.926 229.759C628.732 232.947 624.468 237.911 626.519 242.907C628.024 246.576 645.464 255.972 646 253C655.398 254.75 659.073 244.144 668 245.228C673.605 245.909 688.113 254.524 682.381 261.682C680.139 264.482 675.226 264.229 672 265L680 271L678 273C681.054 275.85 690.924 283.666 695 281L696 281L701 287L706 261L707 261L707 263L708 263L707 254L709 254C706.017 239.587 696.33 228.834 686.251 218.61C680.292 212.565 671.55 216.386 670 224z"/>
<path style="fill:#ac8056; stroke:none;" d="M674 218L676 220L674 218M677 219L676 221L676 222L680 222L677 219z"/>
<path style="fill:#a44f11; stroke:none;" d="M687.333 219.667L687.667 220.333L687.333 219.667M688 221L689 222L688 221z"/>
<path style="fill:#ac8056; stroke:none;" d="M199 222L196 228L197 228L199 222z"/>
<path style="fill:#63705f; stroke:none;" d="M199 234L198 236L198 237C201.262 234.721 205.759 230.47 210 230.976C214.482 231.511 217.942 235.871 222.815 234.257C229.068 232.186 227.135 225.747 221.995 223.742C217.884 222.139 205.221 221.155 201.105 222.643C196.34 224.365 195.085 231.124 199 234z"/>
<path style="fill:#ac8056; stroke:none;" d="M205 222L205 223L221 223L205 222M311.333 222.667L311.667 223.333L311.333 222.667z"/>
<path style="fill:#040302; stroke:none;" d="M669.333 222.667L669.667 223.333L669.333 222.667z"/>
<path style="fill:#a44f11; stroke:none;" d="M689.333 222.667L689.667 223.333L689.333 222.667z"/>
<path style="fill:#ac8056; stroke:none;" d="M222.667 223.333L223.333 223.667L222.667 223.333M321 223L322 224L321 223M224 224L227 232L228 232C228.916 227.857 227.759 225.896 224 224M658 224L658 226L655 225C655.925 229.296 660.417 227.06 664 227L658 224M674 224L672 227L672 228C675.455 229.342 676.598 228.806 679 226L674 224M318 225L319 226L318 225M639.667 225.333L640.333 225.667L639.667 225.333M670 225L671 226L670 225M146 226L147 227L146 226M312 226L312 228L314 228L312 226M315 226L316 227L315 226M637 228L637 229L645 237L654 234L653 231L637 228z"/>
<path style="fill:#a44f11; stroke:none;" d="M693 227L694 228L693 227z"/>
<path style="fill:#ac8056; stroke:none;" d="M149 228L150 229L149 228M414.667 228.333L415.333 228.667L414.667 228.333M647 228L647 229L652 229L647 228M667 228L655 233C660.374 232.324 666.259 233.314 669 228L667 228M150 229L142 236L143 242L135 246L135 247L138 249C140.98 243.538 155.518 237.429 150 229M196.333 229.667L196.667 230.333L196.333 229.667M671 229L672 230L671 229M207 230L207 231L211 231L207 230M245 230L246 231L245 230M206 231L207 232L206 231M211.667 231.333L212.333 231.667L211.667 231.333M244 231L245 232L244 231z"/>
<path style="fill:#040302; stroke:none;" d="M615 231L624 238L624 237L615 231z"/>
<path style="fill:#ac8056; stroke:none;" d="M196.333 232.667L196.667 233.333L196.333 232.667M204.667 232.333L205.333 232.667L204.667 232.333M213 232L214 233L213 232M225 232L225 234L227 232L225 232M243 232L244 233L243 232M203 233L199 235L199 236L203 233M214.667 233.333L215.333 233.667L214.667 233.333M242 233L243 234L242 233M634 233L632 240L636 243L651 242L657 238L660 239L660 237L666 239L666 238L664 237L666 235C659.921 235.136 652.312 233.934 649 240L634 233M197 234L197 236L199 234L197 234M216 234L216 235L225 235L216 234M241 234L242 235L241 234M239 235L240 236L239 235M237 236L238 237L237 236z"/>
<path style="fill:#63705f; stroke:none;" d="M657.667 236.333L658.333 236.667L657.667 236.333z"/>
<path style="fill:#ac8056; stroke:none;" d="M667 236L669 238L667 236M235 237L236 238L235 237z"/>
<path style="fill:#63705f; stroke:none;" d="M655 237L653 238L653 239L655 237z"/>
<path style="fill:#ac8056; stroke:none;" d="M233 238L234 239L233 238z"/>
<path style="fill:#040302; stroke:none;" d="M624 238L627 240L624 238z"/>
<path style="fill:#ac8056; stroke:none;" d="M201 239L200 242C202.158 241.022 202.501 240.812 201 239M231 239L232 240L231 239M203 242L206 242L205 240L203 242M229 240L230 241L229 240z"/>
<path style="fill:#040302; stroke:none;" d="M627.333 240.667L627.667 241.333L627.333 240.667z"/>
<path style="fill:#ac8056; stroke:none;" d="M226.667 241.333L227.333 241.667L226.667 241.333M631 241L632 242L631 241z"/>
<path style="fill:#63705f; stroke:none;" d="M637 241L638 242L637 241z"/>
<path style="fill:#ac8056; stroke:none;" d="M167 242L165 245L167 242M199 242L198 245L199 242M206 242L206 243L209 243L206 242M209 243L209 244L226 243L209 243M649 242L648 244L649 242M155.333 245.667L155.667 246.333L155.333 245.667M163 245L164 246L163 245M197 245L198 246L197 245z"/>
<path style="fill:#a44f11; stroke:none;" d="M657 251L665 251L665 252L659 252C662.736 264.578 670.215 264.252 681 264L681 260L682 260L683 263C686.944 249.235 663.756 237.305 657 251z"/>
<path style="fill:#ac8056; stroke:none;" d="M157 246L157 247L161 247L157 246M196 247L197 248L196 247M195 248L196 249L195 248M139.667 249.333L140.333 249.667L139.667 249.333M152 249L153 250L152 249M142.667 250.333L143.333 250.667L142.667 250.333M157 250L157 252L147 252L147 253L167 256L167 255L163 255L163 254L167 253L157 250M194 250L195 251L194 250z"/>
<path style="fill:#040302; stroke:none;" d="M668 250L668 251L671 251L668 250M673.667 250.333L674.333 250.667L673.667 250.333z"/>
<path style="fill:#ac8056; stroke:none;" d="M145.667 251.333L146.333 251.667L145.667 251.333M167 251L168 252L167 251M193 251L194 252L193 251M192 252L193 253L192 252M176.667 253.333L177.333 253.667L176.667 253.333M174.667 254.333L175.333 254.667L174.667 254.333M171 255L172 256L171 255z"/>
<path style="fill:#040302; stroke:none;" d="M679 256L680 260L681 260L679 256z"/>
<path style="fill:#ac8056; stroke:none;" d="M387 257L388 258L387 257z"/>
<path style="fill:#040302; stroke:none;" d="M682 257L683 258L682 257M681 260L681 264L682 264L681 260z"/>
<path style="fill:#ac8056; stroke:none;" d="M380 261L381 262L380 261z"/>
<path style="fill:#040302; stroke:none;" d="M706 261L706 268L707 268L706 261z"/>
<path style="fill:#ac8056; stroke:none;" d="M377 263L378 264L377 263z"/>
<path style="fill:#a44f11; stroke:none;" d="M707.333 263.667L707.667 264.333L707.333 263.667z"/>
<path style="fill:#ac8056; stroke:none;" d="M375 264L366 269L366 270L376 265L375 264z"/>
<path style="fill:#040302; stroke:none;" d="M682 265L680 273L684 274L682 265z"/>
<path style="fill:#a44f11; stroke:none;" d="M708 265L705 267L701 288C704.331 289.138 706.746 290.079 709 287L710 287L712 289C715.813 281.077 712.559 272.867 710 265L708 265M672 266L673 267L672 266z"/>
<path style="fill:#040302; stroke:none;" d="M703 266L704 267L703 266z"/>
<path style="fill:#63705f; stroke:none;" d="M695 286L696 287L695 286M697.667 287.333L698.333 287.667L697.667 287.333z"/>
<path style="fill:#a44f11; stroke:none;" d="M699 288L700 289L699 288z"/>
<path style="fill:#63705f; stroke:none;" d="M607 295L607 296L618 295L607 295z"/>
<path style="fill:#ac8056; stroke:none;" d="M578 308L579 306C563.607 312.409 552.634 322.884 539 331.896C515.518 347.418 489.531 355.494 462 350L462 351C480.507 358.139 493.127 355.541 512 353L512 354C501.154 356.48 490.24 359.522 479 357.536C437.043 350.122 404.72 311.37 360 311L360 310L362 310L362 309C343.002 305.834 321.672 300.219 304 312C295.225 317.85 286.605 328.592 281 337C278.742 340.388 276.589 346.647 274 346L275 349L273 348L274 351L272 350L273 354L272 354L271 352C266.28 363.337 260.383 375.409 265.728 387.961C269.499 396.817 282.773 401.706 289.91 407.444C306.628 420.884 322.34 437.251 338 451.964C343.959 457.562 357.368 463.133 360 471L361 472L372 479.074L420 520L418 517L422 522C428.478 520.92 439.103 534.206 441 538C443.212 542.424 448.704 542.182 448 545C453.24 546.238 456.904 548.234 462 545C466.287 549.598 478.172 544.339 483.407 541.982C495.363 536.599 495.111 527.581 502.065 518.194C506.781 511.828 516.386 507.252 522.866 502.806C527.244 499.801 542.398 490.553 543 486L546 486L545 484L568 467L568 466L528 465L528 463L570 462.66L587 453C595.513 443.527 608.564 437.518 618.536 429.579C635.004 416.47 650.093 400.834 665 385.999C671.981 379.051 686.138 369.423 689.382 360C691.81 352.945 686.336 344.287 687 337C684.869 337 685.084 329.778 683 327C676.207 317.943 668.726 308.412 659 302.333C631.92 285.408 603.819 298.488 578 308z"/>
<path style="fill:#63705f; stroke:none;" d="M603 296L603 297L606 297L603 296M600 297L600 298L603 298L600 297M632 297L633 298L632 297M637 297L638 298L637 297M578 307L578 308L600 299C593.396 296.658 583.602 303.73 578 307M639.667 298.333L640.333 298.667L639.667 298.333z"/>
<path style="fill:#ac8056; stroke:none;" d="M592 299L593 300L592 299z"/>
<path style="fill:#63705f; stroke:none;" d="M642.667 299.333L643.333 299.667L642.667 299.333z"/>
<path style="fill:#ac8056; stroke:none;" d="M589.667 300.333L590.333 300.667L589.667 300.333z"/>
<path style="fill:#63705f; stroke:none;" d="M645 300L646 301L645 300z"/>
<path style="fill:#ac8056; stroke:none;" d="M587.667 301.333L588.333 301.667L587.667 301.333z"/>
<path style="fill:#63705f; stroke:none;" d="M647 301L647 302L660 308L660 307L647 301z"/>
<path style="fill:#ac8056; stroke:none;" d="M585.667 302.333L586.333 302.667L585.667 302.333z"/>
<path style="fill:#63705f; stroke:none;" d="M333 303L333 304L342 304L333 303z"/>
<path style="fill:#ac8056; stroke:none;" d="M584 303L585 304L584 303z"/>
<path style="fill:#63705f; stroke:none;" d="M342 304L342 305L362 309L362 310L360 310L360 311C415.043 312.136 455.606 371.914 512 354L512 353L487 356.982L462 351L462 350L473 350L473 349L406 321.449L375 310L381 311C371.848 305.41 352.691 304.089 342 304z"/>
<path style="fill:#ac8056; stroke:none;" d="M582 304L583 305L582 304M580 305L581 306L580 305M359 306L359 307L362 307L359 306M362 307L362 308L365 308L362 307M366 308L367 309L366 308z"/>
<path style="fill:#63705f; stroke:none;" d="M562 316L562 317L578 309L562 316M661 308L661 309C670.562 316.088 679.323 323.825 684 335L685 335C681.763 323.785 671.433 312.964 661 308z"/>
<path style="fill:#ac8056; stroke:none;" d="M373 310L374 311L373 310M375 310C379.559 315.664 398.718 319.909 406 321L406 320L375 310z"/>
<path style="fill:#63705f; stroke:none;" d="M359 311L360 312L359 311M303 312L304 313L303 312M286 330L303 313C295.63 315.506 288.997 322.921 286 330z"/>
<path style="fill:#ac8056; stroke:none;" d="M298 314L299 315L298 314M295 318L298 315L295 318z"/>
<path style="fill:#63705f; stroke:none;" d="M568 315L521 345L521 346C537.344 341.191 554.828 325.561 569 316L568 315M560 317L561 318L560 317z"/>
<path style="fill:#ac8056; stroke:none;" d="M294 318L295 319L294 318z"/>
<path style="fill:#63705f; stroke:none;" d="M558 318L556 319L556 320L558 318z"/>
<path style="fill:#ac8056; stroke:none;" d="M293 319L294 320L293 319M292 320L293 321L292 320z"/>
<path style="fill:#63705f; stroke:none;" d="M554 320L555 321L554 320z"/>
<path style="fill:#ac8056; stroke:none;" d="M406.667 321.333L407.333 321.667L406.667 321.333z"/>
<path style="fill:#63705f; stroke:none;" d="M552 321L553 322L552 321z"/>
<path style="fill:#ac8056; stroke:none;" d="M408 322L409 323L408 322M410 323L411 324L410 323z"/>
<path style="fill:#63705f; stroke:none;" d="M285 330L283 334L285 330z"/>
<path style="fill:#ac8056; stroke:none;" d="M430 333L431 334L430 333z"/>
<path style="fill:#63705f; stroke:none;" d="M282 334L275 347L276 347L282 334z"/>
<path style="fill:#ac8056; stroke:none;" d="M432 334L433 335L432 334M434 335L435 336L434 335z"/>
<path style="fill:#63705f; stroke:none;" d="M685 335L685 338L686 338L685 335z"/>
<path style="fill:#ac8056; stroke:none;" d="M436.667 336.333L437.333 336.667L436.667 336.333M438.667 337.333L439.333 337.667L438.667 337.333M440 338L441 339L440 338z"/>
<path style="fill:#63705f; stroke:none;" d="M686 338L686 341L687 341L686 338z"/>
<path style="fill:#a44f11; stroke:none;" d="M441 339L442 340L441 339M444 339L445 340L444 339z"/>
<path style="fill:#63705f; stroke:none;" d="M687 341L687 344L688 344L687 341z"/>
<path style="fill:#a44f11; stroke:none;" d="M447 342L448 343L447 342z"/>
<path style="fill:#63705f; stroke:none;" d="M285 384L313 343C302.258 348.023 287.232 372.423 285 384z"/>
<path style="fill:#a44f11; stroke:none;" d="M455 345L456 346L455 345M457 345L459 347L457 345M460 345L462 347L462 345L460 345z"/>
<path style="fill:#63705f; stroke:none;" d="M519 346L520 347L519 346M688 346L688 349L689 349L688 346M274.333 347.667L274.667 348.333L274.333 347.667M517 347L518 348L517 347M273.333 349.667L273.667 350.333L273.333 349.667z"/>
<path style="fill:#a44f11; stroke:none;" d="M466.667 349.333L467.333 349.667L466.667 349.333z"/>
<path style="fill:#63705f; stroke:none;" d="M689 350L689 355L690 355L689 350M272 351L272 354L273 354L272 351M623 354L623 355C637.382 354.998 650.665 352.969 658.19 368C660.425 372.466 661.251 377.365 663 382L665 382C667.602 371.674 658.083 355.814 648 352.653C640.243 350.221 630.708 352.505 623 354M271 354L268 365L269 365L271 354M690 355L690 360L691 360L690 355M267.333 367.667L267.667 368.333L267.333 367.667M266 370L267 371L266 370M265.333 372.667L265.667 373.333L265.333 372.667M266 390L267 391L266 390M267 391L268 392L267 391M268 392L272 395L268 392M272 395C279.39 405.275 294.758 418.176 306 424C300.501 412.434 283.485 400.118 272 395M509 422L509 423L542 422L509 422M626 422L627 423L626 422M306 424L311 428L306 424M622 425L622 427L624 425L622 425M621 427L622 428L621 427M311 428L315 432L311 428M619 428L619 430L621 428L619 428M587 453L568 462.812L528 463L528 465L568 466L568 467C562.307 469.288 547.359 480.056 546 486L543 486L544 488C536.038 490.218 531.087 496.336 524.561 501C517.423 506.101 507.668 510.564 502.108 517.456C497.337 523.371 497.039 531.383 491.07 536.54C484.645 542.091 470.1 549.163 462 545C457.123 546.969 453.535 546.565 449 544C453.629 553.5 466.859 561.375 475 568L476 568L575 473.039L619 430C609.939 433.055 591.999 444.85 587 453M315 432L318 434L315 432M318 434L319 435L318 434M319 435L320 436L319 435M320 436L322 438L322 436L320 436M322.667 438.333L323.333 438.667L322.667 438.333M324 439L325 440L324 439M325 440L326 441L325 440M326 441L327 442L326 441M327 442L328 443L327 442M328 443L329 444L328 443M329 444L330 445L329 444M332 446L333 447L332 446M333 447L334 448L333 447M334 448L335 449L334 448M335 449L336 450L335 449M346 458L347 459L346 458M347 459L348 460L347 459M348 460L349 461L348 460M350 461L351 462L350 461M351 462L352 463L351 462M352 463L353 464L352 463M353 464L357 467L353 464M357 467L358 468L357 467M358 468L361 470L358 468M361 470L362 471L361 470M362 471L363 472L362 471M363 472L365 474L365 472L363 472M365 474L366 475L365 474M366 475L370 478L366 475M370 478L371 479L370 478M371 479L372 480L371 479M372 480L401 505.424L415 515L417 518L408 507.96L385 487.911L372 480z"/>
<path style="fill:#ac8056; stroke:none;" d="M414 515L415 516L414 515M415 516L416 517L415 516z"/>
<path style="fill:#63705f; stroke:none;" d="M418 517L420 522L422 522L423 521L418 517M417 518L418 519L417 518M422 522C426.008 527.445 434.964 537.124 442 537C437.892 531.169 429.607 521.823 422 522M441 538L442 539L441 538M442 539L443 540L442 539M444 539L445 540L444 539M443 540L444 541L443 540M444 541L445 542L444 541M445 542L446 543L445 542M446 543L446 544L449 544L446 543z"/>
</svg>
